<svg width="23" height="22" viewBox="0 0 23 22" fill="none" xmlns="http://www.w3.org/2000/svg">
<path d="M18.3349 11.737L17.3268 11.5642L16.3136 11.4114C15.9554 11.3535 15.594 11.3172 15.2315 11.3027C14.2662 11.2775 13.2998 11.2851 12.3347 11.2996L9.44134 11.363C8.2548 11.3961 7.06832 11.4252 5.88474 11.4865C5.29218 11.5094 4.7021 11.5528 4.1107 11.5854C3.52149 11.6325 2.93023 11.6685 2.3435 11.7292C1.98373 11.7486 1.62294 11.7359 1.26543 11.6913C1.10046 11.668 0.943852 11.6041 0.80964 11.5054C0.675429 11.4067 0.56781 11.2762 0.496433 11.1256C0.236434 10.6745 0.369133 10.1434 0.846269 9.96463C1.15618 9.856 1.48289 9.80318 1.81124 9.80861C3.29304 9.78731 4.77148 9.6614 6.23554 9.43183C6.63689 9.33817 7.04983 9.30398 7.46112 9.33036C8.7317 9.50443 10.0013 9.35638 11.268 9.45818C11.738 9.49425 12.2092 9.51181 12.6805 9.5332C13.1519 9.54993 13.6236 9.56916 14.0937 9.60922C15.7705 9.7438 17.4409 9.94134 19.1043 10.1838C19.7635 10.2558 20.384 10.5312 20.8796 10.9718C21.1095 11.1855 21.0306 11.6203 20.7265 11.6814C20.2949 11.7628 19.857 11.8059 19.4179 11.8102C19.0572 11.7965 18.6977 11.7622 18.341 11.7074L18.3349 11.737Z" fill="#FF5C4D"/>
<path d="M14.6944 12.9744C15.321 12.6095 15.9612 12.2592 16.6286 11.9433C16.983 11.7763 17.3416 11.6164 17.6963 11.4422C18.3154 11.1228 18.9631 10.8621 19.6308 10.6635C20.3323 10.4563 21.059 10.3468 21.7905 10.3378L21.2315 12.145C20.6249 11.7878 20.0235 11.4212 19.4312 11.0402C17.3596 9.70587 15.3675 8.24906 13.4324 6.72393C13.1451 6.48219 12.8839 6.21094 12.6532 5.91463C12.5496 5.78049 12.4817 5.62228 12.4557 5.45478C12.4298 5.28727 12.4467 5.11592 12.5049 4.95673C12.6487 4.45755 13.1318 4.18997 13.5874 4.40237C13.8781 4.54737 14.1437 4.73801 14.3741 4.96705C15.4478 5.97804 16.6443 6.85023 17.9353 7.56318C18.2915 7.76152 18.6807 7.93945 18.9654 8.21925C19.8785 9.11167 21.01 9.70295 22.0273 10.4515C22.0907 10.4977 22.1542 10.544 22.2182 10.5905L22.3018 10.6513C22.4515 10.7603 22.5613 10.9154 22.6144 11.0928C22.6675 11.2702 22.6609 11.4601 22.5957 11.6334C22.5304 11.8067 22.4102 11.9538 22.2533 12.0521C22.0964 12.1505 21.9116 12.1947 21.7271 12.1779C20.985 12.1102 20.2143 12.2724 19.4519 12.4956C17.9571 12.936 16.5069 13.7511 15.1175 14.6622C14.5767 15.0461 13.9397 15.272 13.2779 15.3148C12.9601 15.326 12.7066 14.9645 12.8878 14.7028C13.1492 14.3289 13.4495 13.9839 13.7837 13.6735C14.0745 13.4261 14.3837 13.2013 14.7086 13.0009L14.6944 12.9744Z" fill="#FF5C4D"/>
</svg>
