<svg width="124" height="124" viewBox="0 0 124 124" fill="none" xmlns="http://www.w3.org/2000/svg">
<g clip-path="url(#clip0_52_2855)">
<path fill-rule="evenodd" clip-rule="evenodd" d="M66.6617 45.7021C67.7486 42.8849 67.779 39.79 66.3313 36.5111C61.8527 26.3682 53.0283 23.1899 43.1588 23.9053C28.7477 24.9504 12.0923 34.4203 4.18864 41.9638C3.8139 42.3206 3.80148 42.9133 4.15802 43.2857C4.51487 43.6605 5.10782 43.6751 5.48257 43.3183C13.1533 35.9962 29.3093 26.7876 43.2954 25.7724C52.3576 25.1158 60.5054 27.9519 64.6177 37.2685C65.8435 40.0405 65.8091 42.6521 64.8963 45.0365C63.3289 44.4639 61.766 43.9432 60.2102 43.4763C55.9152 42.1887 44.2985 40.9492 36.1547 43.0576C30.3131 44.5715 26.2611 47.8012 27.1794 53.5711C27.6905 56.7781 30.0027 58.842 33.3808 59.8454C38.0243 61.2276 44.7713 60.5618 51.0262 58.3332C56.2342 56.4786 61.0931 53.5501 64.1321 49.9035C64.7983 49.1007 65.3817 48.2658 65.8632 47.3992C87.4502 55.7529 108.975 73.721 119.686 93.6755C119.932 94.1292 120.498 94.3024 120.954 94.0563C121.41 93.8126 121.581 93.2444 121.337 92.7903C110.451 72.5112 88.6066 54.2397 66.6617 45.7021ZM64.0807 46.7311C62.6065 46.1963 61.1362 45.7087 59.6723 45.2702C55.5562 44.0377 44.4277 42.8505 36.625 44.871C31.8363 46.1102 28.2757 48.5483 29.0281 53.2773C29.4247 55.7606 31.2994 57.2721 33.914 58.0521C36.7912 58.9071 40.5323 58.8855 44.4301 58.1737C50.3478 57.0929 56.6243 54.4135 60.8187 50.6384C62.1482 49.4431 63.2649 48.1351 64.0807 46.7311Z" fill="url(#paint0_linear_52_2855)"/>
<path fill-rule="evenodd" clip-rule="evenodd" d="M87.1124 81.0877C98.2744 81.5174 110.838 87.1193 119.901 93.7479C120.318 94.0528 120.904 93.9612 121.209 93.5445C121.513 93.1277 121.424 92.5413 121.007 92.2364C111.662 85.3997 98.692 79.6606 87.185 79.2169C86.67 79.1967 86.2346 79.5997 86.2147 80.1171C86.1944 80.6321 86.5974 81.0675 87.1124 81.0877Z" fill="url(#paint1_linear_52_2855)"/>
<path fill-rule="evenodd" clip-rule="evenodd" d="M121.188 92.0904C115.56 84.6872 113.308 72.4895 114.444 63.2314C114.507 62.7178 114.142 62.2488 113.629 62.1878C113.116 62.1244 112.649 62.4886 112.586 63.0022C111.396 72.7011 113.802 85.4671 119.698 93.2234C120.01 93.6351 120.599 93.7147 121.011 93.403C121.422 93.089 121.502 92.5018 121.188 92.0904Z" fill="url(#paint2_linear_52_2855)"/>
</g>
<defs>
<linearGradient id="paint0_linear_52_2855" x1="56.6233" y1="22.0607" x2="68.2966" y2="110.571" gradientUnits="userSpaceOnUse">
<stop stop-color="#FF7369"/>
<stop offset="1" stop-color="#D83848"/>
</linearGradient>
<linearGradient id="paint1_linear_52_2855" x1="102.562" y1="77.1751" x2="105.334" y2="98.1873" gradientUnits="userSpaceOnUse">
<stop stop-color="#FF7369"/>
<stop offset="1" stop-color="#D83848"/>
</linearGradient>
<linearGradient id="paint2_linear_52_2855" x1="114.219" y1="62.0794" x2="118.907" y2="97.6225" gradientUnits="userSpaceOnUse">
<stop stop-color="#FF7369"/>
<stop offset="1" stop-color="#D83848"/>
</linearGradient>
<clipPath id="clip0_52_2855">
<rect width="110.112" height="110.112" fill="white" transform="translate(109.168) rotate(82.4869)"/>
</clipPath>
</defs>
</svg>
