<svg width="235" height="281" viewBox="0 0 235 281" fill="none" xmlns="http://www.w3.org/2000/svg">
<g clip-path="url(#clip0_52_3007)">
<path fill-rule="evenodd" clip-rule="evenodd" d="M86.4681 110.63C61.7017 126.378 39.8045 147.031 31.5501 173.106C28.5202 182.684 28.3936 192.669 28.1579 202.871C28.1374 203.767 28.8502 204.514 29.7459 204.532C30.6403 204.554 31.3889 203.842 31.4081 202.949C31.6359 193.056 31.7123 183.37 34.6498 174.091C42.7776 148.408 64.5806 128.226 89.053 112.837C89.2444 113.003 89.4345 113.173 89.6247 113.342C93.8035 117.062 101.367 118.966 109.994 119.337C122.517 119.88 137.287 117.313 146.523 113.314C150.785 111.472 153.899 109.266 155.309 106.991C156.487 105.097 156.659 103.121 155.647 101.118C154.809 99.4674 153.416 98.1421 151.551 97.1444C149.061 95.814 145.68 95.0564 141.765 94.798C127.278 93.8411 105.278 99.6137 97.0424 104.284C94.4621 105.747 91.8982 107.26 89.3533 108.827C88.136 107.795 86.9758 106.804 85.9596 105.758C84.4679 104.223 83.2997 102.582 82.8539 100.448C82.0295 96.5116 83.204 92.6943 85.317 89.1718C88.6966 83.5301 94.4616 78.6437 99.0938 75.1992C125.146 55.8246 157.004 54.1888 186.495 58.4669C216.32 62.7912 243.758 73.1818 260.573 77.7978C261.438 78.0334 262.335 77.5241 262.571 76.6594C262.81 75.7965 262.299 74.9006 261.435 74.662C244.527 70.0218 216.941 59.5977 186.963 55.2491C156.649 50.8543 123.932 52.6769 97.151 72.5918C92.2257 76.2588 86.127 81.4982 82.5271 87.5005C79.9864 91.7463 78.6798 96.3707 79.6719 101.11C80.2504 103.874 81.7026 106.039 83.6272 108.021C84.4902 108.91 85.4554 109.765 86.4681 110.63ZM91.9409 111.05C95.7261 114.297 102.495 115.761 110.134 116.091C122.167 116.612 136.358 114.173 145.234 110.333C148.208 109.045 150.565 107.626 151.942 106.078C152.94 104.96 153.361 103.796 152.747 102.587C152.042 101.197 150.694 100.222 148.943 99.5085C146.926 98.6845 144.393 98.2271 141.547 98.0411C127.653 97.1236 106.542 102.631 98.6473 107.11C96.4013 108.385 94.1624 109.7 91.9409 111.05Z" fill="url(#paint0_linear_52_3007)"/>
<path fill-rule="evenodd" clip-rule="evenodd" d="M31.7572 207.256C31.1134 206.868 30.3841 206.161 29.6329 205.384C27.9306 203.628 26.2467 201.438 25.4111 200.428C24.8372 199.739 23.8116 199.642 23.1204 200.216C22.4293 200.789 22.3367 201.814 22.9094 202.506C23.9318 203.737 26.1663 206.639 28.2216 208.553C29.2778 209.537 30.3243 210.265 31.1735 210.562C32.0081 210.849 32.6932 210.747 33.2785 210.438C33.8938 210.113 34.4563 209.446 34.8525 208.408C35.2868 207.267 35.6004 205.512 36.2065 203.692C36.7137 202.165 37.4369 200.566 38.7888 199.402C39.4706 198.817 39.55 197.791 38.963 197.111C38.38 196.433 37.3521 196.352 36.6742 196.939C34.1343 199.119 33.1278 202.378 32.4514 205.002C32.2507 205.784 31.9401 206.728 31.7572 207.256Z" fill="url(#paint1_linear_52_3007)"/>
</g>
<defs>
<linearGradient id="paint0_linear_52_3007" x1="181.758" y1="41.386" x2="91.6399" y2="257.259" gradientUnits="userSpaceOnUse">
<stop stop-color="#FF7369"/>
<stop offset="1" stop-color="#D83848"/>
</linearGradient>
<linearGradient id="paint1_linear_52_3007" x1="33.1635" y1="194.503" x2="26.4475" y2="210.591" gradientUnits="userSpaceOnUse">
<stop stop-color="#FF7369"/>
<stop offset="1" stop-color="#D83848"/>
</linearGradient>
<clipPath id="clip0_52_3007">
<rect width="214.459" height="214.459" fill="white" transform="translate(280.524 82.6172) rotate(112.659)"/>
</clipPath>
</defs>
</svg>
