<svg width="487" height="54" viewBox="0 0 487 54" fill="none" xmlns="http://www.w3.org/2000/svg">
<path fill-rule="evenodd" clip-rule="evenodd" d="M291.454 24.664C226.643 25.6231 161.8 29.4278 97.2715 36.2287C66.5925 39.4627 30.965 39.0584 1.2102 50.0841C-0.272404 50.639 0.00995321 52.3035 0.0420442 52.47C0.106226 52.8108 0.37586 53.9442 1.55681 53.9997C1.68517 54.0076 2.59008 53.8491 2.93666 53.7936C11.7232 52.3669 20.4776 50.7024 29.2706 49.3549C59.6287 44.6863 90.0767 41.159 120.57 38.0677C161.043 33.9618 201.863 31.774 242.445 30.0619C264.658 29.1266 287.404 30.371 309.688 28.437C317.872 28.3815 326.055 28.3737 334.238 28.4054C368.447 28.556 402.618 30.1571 436.769 32.3528C447.75 33.0582 456.126 33.8191 466.877 34.3344C470.959 34.5325 477.435 34.6673 481.94 34.7545C482.601 34.7703 484.289 34.786 484.989 34.794C485.059 34.8098 485.13 34.8098 485.207 34.8098C485.477 34.8098 485.605 34.786 485.631 34.786C487.158 34.5086 487.017 32.7252 486.979 32.4557C486.972 32.4002 486.741 30.8942 485.425 30.8387C485.111 30.8228 482.858 30.8071 481.992 30.7913C477.512 30.7041 471.061 30.5693 466.999 30.3791C456.267 29.8639 447.898 29.1029 436.936 28.3975C402.733 26.2019 368.511 24.5928 334.251 24.4422C330.066 24.4263 325.875 24.4184 321.69 24.4263C321.549 23.9745 321.235 23.4672 320.542 23.2453C319.893 23.0392 315.253 22.8569 313.462 22.6746C300.209 21.3271 300.6 21.3905 286.018 20.2887C263.933 18.6163 260.57 18.2356 237.599 17.5302C195.874 16.2461 154.13 16.3493 112.399 16.4761C91.7968 16.5474 69.7373 18.2674 48.8204 15.0572C55.7136 14.0585 62.6324 13.3293 69.5384 12.497C93.1189 9.65933 116.719 7.89958 140.395 6.66305C197.19 3.69857 254.075 2.51762 310.85 6.5601C298.765 6.70278 286.686 7.03559 274.6 7.2496C225.405 8.13736 175.734 7.47161 126.641 12.0769C125.762 12.1641 125.101 13.1152 125.165 14.2011C125.229 15.295 126.006 16.1114 126.885 16.0322C175.914 11.4269 225.514 12.1006 274.645 11.2128C292.898 10.8878 311.145 10.3013 329.399 10.4757C335.663 10.5391 341.927 10.8245 348.191 10.9196C349.43 10.9434 352.62 11.2446 353.076 11.1178C354.083 10.8404 354.301 9.92085 354.365 9.46904C354.398 9.19955 354.5 7.64596 352.96 7.09111C342.447 3.30228 323.045 3.47666 312.827 2.73157C255.352 -1.46944 197.761 -0.296356 140.261 2.69984C116.526 3.94429 92.8686 5.71199 69.2239 8.55758C60.9637 9.54839 52.6842 10.4044 44.4561 11.7202C43.1275 11.9342 40.1431 12.2434 38.699 12.5684C38.0957 12.7032 37.6592 12.8933 37.4666 13.028C36.7157 13.5512 36.5809 14.3121 36.5809 14.8273C36.5745 15.2236 36.7093 16.6187 38.2818 16.9992C62.2409 22.7934 88.3117 20.5186 112.406 20.4393C154.111 20.3125 195.823 20.2093 237.522 21.4934C260.435 22.1988 263.785 22.5716 285.826 24.244C288.001 24.4026 289.843 24.5451 291.454 24.664Z" fill="#09100F"/>
</svg>
