<svg width="166" height="99" viewBox="0 0 166 99" fill="none" xmlns="http://www.w3.org/2000/svg">
<path fill-rule="evenodd" clip-rule="evenodd" d="M119.689 93.9448C134.51 94.3022 149.655 93.5874 163.827 98.6555C164.671 98.9544 165.601 98.5191 165.906 97.6744C166.205 96.8297 165.769 95.9006 164.925 95.5952C150.422 90.4101 134.932 91.0599 119.767 90.696C118.87 90.67 118.123 91.3847 118.103 92.2814C118.077 93.1781 118.792 93.9188 119.689 93.9448Z" fill="#F9F8F5"/>
<path fill-rule="evenodd" clip-rule="evenodd" d="M118.357 72.4253C122.977 68.1746 128.019 64.9902 134.113 63.4119C134.984 63.1871 135.504 62.3001 135.283 61.4321C135.056 60.564 134.165 60.0423 133.301 60.2671C126.674 61.9824 121.183 65.4145 116.161 70.0336C115.498 70.6405 115.452 71.6691 116.063 72.3292C116.667 72.9887 117.701 73.0322 118.357 72.4253Z" fill="#F9F8F5"/>
<path fill-rule="evenodd" clip-rule="evenodd" d="M105.505 26.0188C107.623 18.7577 111.795 13.0776 118.188 8.97564C118.942 8.49157 119.163 7.48576 118.676 6.73139C118.195 5.97702 117.188 5.75738 116.434 6.24145C109.358 10.7833 104.732 17.069 102.386 25.1085C102.133 25.9688 102.633 26.8719 103.491 27.1227C104.355 27.3742 105.258 26.8791 105.505 26.0188Z" fill="#F9F8F5"/>
<path fill-rule="evenodd" clip-rule="evenodd" d="M32.5041 16.1638C31.2436 17.6472 30.113 19.2456 29.1513 20.9473C28.7225 21.7049 27.9688 23.315 27.8518 24.6957C27.7218 26.1668 28.2221 27.4078 29.5086 28.0615C31.2175 28.9283 32.5821 28.838 33.6347 28.3136C34.6483 27.81 35.4409 26.8204 35.9413 25.4936C36.8964 22.9576 36.7534 19.0818 36.2531 16.8701C37.5981 15.4822 39.0731 14.2236 40.652 13.1047C52.4126 4.77154 69.6638 7.84426 82.9383 20.304C87.5841 24.6665 89.8193 33.8281 90.9823 43.7128C92.7952 59.1037 91.762 76.2937 91.6191 81.33C91.5866 82.5736 91.7035 83.3117 91.7685 83.4592C92.0739 84.1843 92.6132 84.3728 92.9901 84.4443C93.5359 84.5417 93.9711 84.4378 94.322 84.2558C94.7963 84.0063 95.1863 83.5671 95.3682 82.8894C95.4657 82.5151 95.4916 81.994 95.4786 81.4385C95.4656 81.0532 95.3876 80.6321 95.4656 80.356C95.9724 78.5873 96.5832 76.8603 97.181 75.1209C99.1757 69.2737 101.755 63.7943 104.621 58.3214C113.724 40.9313 122.528 22.5567 137.453 9.30751C138.122 8.71298 138.187 7.68506 137.589 7.01451C136.998 6.34396 135.972 6.28287 135.296 6.87805C120.072 20.3891 111.027 39.0801 101.742 56.8146C99.3057 61.4701 97.0705 66.1321 95.2122 71.0086C95.4006 62.3824 95.3291 50.4417 93.7502 39.8767C92.3467 30.4805 89.6763 22.1766 85.1604 17.9356C70.6189 4.28617 51.6524 1.32524 38.7742 10.4543C37.3967 11.4316 36.0843 12.5063 34.8627 13.672C28.1247 1.50524 13.7 -3.37123 0.951789 2.448C0.133094 2.82032 -0.224267 3.78456 0.146095 4.60001C0.522955 5.41546 1.48456 5.77544 2.30326 5.40313C13.791 0.159578 26.8187 4.83912 32.5041 16.1638ZM33.4462 20.2371C32.9199 20.9804 32.4326 21.751 31.9777 22.5476C31.7373 22.9752 31.3215 23.7971 31.146 24.6015C31.1071 24.79 31.1006 25.0849 31.1006 25.2214C31.5489 25.4423 31.8997 25.5489 32.1856 25.4053C32.543 25.2285 32.725 24.8127 32.9004 24.3481C33.3423 23.1825 33.4852 21.6373 33.4462 20.2371Z" fill="#F9F8F5"/>
</svg>
