<svg width="688" height="240" viewBox="0 0 688 240" fill="none" xmlns="http://www.w3.org/2000/svg">
<rect y="55" width="62.2222" height="153" rx="6" fill="#D04E42"/>
<path d="M12.2954 226.54V232H11.5954V231.04C11.4354 231.38 11.1887 231.64 10.8554 231.82C10.5221 232 10.1487 232.09 9.73541 232.09C9.08207 232.09 8.54874 231.89 8.13541 231.49C7.72207 231.083 7.51541 230.497 7.51541 229.73V226.54H8.20541V229.65C8.20541 230.243 8.35207 230.697 8.64541 231.01C8.94541 231.323 9.35207 231.48 9.86541 231.48C10.3921 231.48 10.8121 231.313 11.1254 230.98C11.4387 230.647 11.5954 230.157 11.5954 229.51V226.54H12.2954ZM16.4535 226.44C17.1069 226.44 17.6402 226.643 18.0535 227.05C18.4669 227.45 18.6735 228.033 18.6735 228.8V232H17.9835V228.88C17.9835 228.287 17.8335 227.833 17.5335 227.52C17.2402 227.207 16.8369 227.05 16.3235 227.05C15.7969 227.05 15.3769 227.217 15.0635 227.55C14.7502 227.883 14.5935 228.373 14.5935 229.02V232H13.8935V226.54H14.5935V227.47C14.7669 227.137 15.0169 226.883 15.3435 226.71C15.6702 226.53 16.0402 226.44 16.4535 226.44ZM19.9017 229.26C19.9017 228.7 20.015 228.21 20.2417 227.79C20.4683 227.363 20.7783 227.037 21.1717 226.81C21.5717 226.577 22.0217 226.46 22.5217 226.46C23.0017 226.46 23.435 226.577 23.8217 226.81C24.2083 227.043 24.4917 227.347 24.6717 227.72V224.6H25.3717V232H24.6717V230.78C24.505 231.16 24.2317 231.473 23.8517 231.72C23.4717 231.96 23.025 232.08 22.5117 232.08C22.0117 232.08 21.5617 231.963 21.1617 231.73C20.7683 231.497 20.4583 231.167 20.2317 230.74C20.0117 230.313 19.9017 229.82 19.9017 229.26ZM24.6717 229.27C24.6717 228.83 24.5817 228.443 24.4017 228.11C24.2217 227.777 23.975 227.52 23.6617 227.34C23.355 227.16 23.015 227.07 22.6417 227.07C22.255 227.07 21.9083 227.157 21.6017 227.33C21.295 227.503 21.0517 227.757 20.8717 228.09C20.6983 228.417 20.6117 228.807 20.6117 229.26C20.6117 229.707 20.6983 230.1 20.8717 230.44C21.0517 230.773 21.295 231.03 21.6017 231.21C21.9083 231.383 22.255 231.47 22.6417 231.47C23.015 231.47 23.355 231.38 23.6617 231.2C23.975 231.02 24.2217 230.763 24.4017 230.43C24.5817 230.097 24.6717 229.71 24.6717 229.27ZM31.9097 228.99C31.9097 229.23 31.903 229.413 31.8897 229.54H27.3597C27.3797 229.953 27.4797 230.307 27.6597 230.6C27.8397 230.893 28.0764 231.117 28.3697 231.27C28.663 231.417 28.983 231.49 29.3297 231.49C29.783 231.49 30.163 231.38 30.4697 231.16C30.783 230.94 30.9897 230.643 31.0897 230.27H31.8297C31.6964 230.803 31.4097 231.24 30.9697 231.58C30.5364 231.913 29.9897 232.08 29.3297 232.08C28.8164 232.08 28.3564 231.967 27.9497 231.74C27.543 231.507 27.223 231.18 26.9897 230.76C26.763 230.333 26.6497 229.837 26.6497 229.27C26.6497 228.703 26.763 228.207 26.9897 227.78C27.2164 227.353 27.533 227.027 27.9397 226.8C28.3464 226.573 28.8097 226.46 29.3297 226.46C29.8497 226.46 30.303 226.573 30.6897 226.8C31.083 227.027 31.383 227.333 31.5897 227.72C31.803 228.1 31.9097 228.523 31.9097 228.99ZM31.1997 228.97C31.2064 228.563 31.123 228.217 30.9497 227.93C30.783 227.643 30.553 227.427 30.2597 227.28C29.9664 227.133 29.6464 227.06 29.2997 227.06C28.7797 227.06 28.3364 227.227 27.9697 227.56C27.603 227.893 27.3997 228.363 27.3597 228.97H31.1997ZM33.8904 227.51C34.0437 227.17 34.2771 226.907 34.5904 226.72C34.9104 226.533 35.3004 226.44 35.7604 226.44V227.17H35.5704C35.0637 227.17 34.6571 227.307 34.3504 227.58C34.0437 227.853 33.8904 228.31 33.8904 228.95V232H33.1904V226.54H33.8904V227.51ZM39.2676 231.45C40.4943 230.53 41.4409 229.707 42.1076 228.98C42.7809 228.247 43.1176 227.53 43.1176 226.83C43.1176 226.37 43.0009 226.003 42.7676 225.73C42.5409 225.45 42.1676 225.31 41.6476 225.31C41.1409 225.31 40.7476 225.47 40.4676 225.79C40.1943 226.103 40.0409 226.523 40.0076 227.05H39.3276C39.3676 226.31 39.5943 225.737 40.0076 225.33C40.4276 224.917 40.9743 224.71 41.6476 224.71C42.2943 224.71 42.8176 224.893 43.2176 225.26C43.6176 225.62 43.8176 226.133 43.8176 226.8C43.8176 227.607 43.4809 228.39 42.8076 229.15C42.1409 229.903 41.3176 230.64 40.3376 231.36H44.0376V231.95H39.2676V231.45ZM49.6503 225.43H45.9903V227.99C46.1569 227.757 46.4003 227.567 46.7203 227.42C47.0403 227.267 47.3869 227.19 47.7603 227.19C48.3069 227.19 48.7536 227.303 49.1003 227.53C49.4469 227.75 49.6969 228.04 49.8503 228.4C50.0036 228.753 50.0803 229.133 50.0803 229.54C50.0803 230.007 49.9903 230.43 49.8103 230.81C49.6369 231.183 49.3669 231.48 49.0003 231.7C48.6403 231.92 48.1903 232.03 47.6503 232.03C46.9636 232.03 46.4069 231.853 45.9803 231.5C45.5536 231.14 45.2936 230.657 45.2003 230.05H45.8903C45.9769 230.49 46.1769 230.83 46.4903 231.07C46.8036 231.31 47.1903 231.43 47.6503 231.43C48.2303 231.43 48.6669 231.26 48.9603 230.92C49.2603 230.573 49.4103 230.117 49.4103 229.55C49.4103 228.997 49.2603 228.567 48.9603 228.26C48.6603 227.947 48.2303 227.79 47.6703 227.79C47.2836 227.79 46.9436 227.88 46.6503 228.06C46.3569 228.24 46.1403 228.483 46.0003 228.79H45.3403V224.82H49.6503V225.43ZM54.4021 232L52.1521 229.55V232H51.4521V224.6H52.1521V228.98L54.3521 226.54H55.3321L52.7421 229.26L55.3521 232H54.4021Z" fill="#09100F"/>
<rect x="78.2222" y="103" width="62.2222" height="105" rx="6" fill="#FF5C4D"/>
<path d="M91.9582 230.16C91.9582 230.473 91.8815 230.773 91.7282 231.06C91.5748 231.34 91.3448 231.573 91.0382 231.76C90.7315 231.947 90.3582 232.05 89.9182 232.07V232.87H89.4782V232.06C88.8848 232.007 88.4048 231.813 88.0382 231.48C87.6715 231.14 87.4748 230.72 87.4482 230.22H88.1982C88.2248 230.52 88.3448 230.793 88.5582 231.04C88.7782 231.28 89.0848 231.427 89.4782 231.48V228.71C89.0315 228.59 88.6715 228.47 88.3982 228.35C88.1315 228.23 87.9048 228.047 87.7182 227.8C87.5315 227.547 87.4382 227.21 87.4382 226.79C87.4382 226.263 87.6215 225.83 87.9882 225.49C88.3548 225.143 88.8515 224.957 89.4782 224.93V224.09H89.9182V224.94C90.4715 224.993 90.9148 225.173 91.2482 225.48C91.5815 225.787 91.7782 226.17 91.8382 226.63H91.0982C91.0582 226.383 90.9348 226.153 90.7282 225.94C90.5282 225.727 90.2582 225.593 89.9182 225.54V228.21C90.3515 228.323 90.7048 228.443 90.9782 228.57C91.2582 228.69 91.4915 228.877 91.6782 229.13C91.8648 229.383 91.9582 229.727 91.9582 230.16ZM88.1482 226.76C88.1482 227.133 88.2615 227.417 88.4882 227.61C88.7215 227.797 89.0515 227.953 89.4782 228.08V225.51C89.0782 225.53 88.7548 225.647 88.5082 225.86C88.2682 226.073 88.1482 226.373 88.1482 226.76ZM89.9182 231.5C90.3448 231.473 90.6748 231.34 90.9082 231.1C91.1415 230.853 91.2582 230.55 91.2582 230.19C91.2582 229.81 91.1415 229.523 90.9082 229.33C90.6815 229.137 90.3515 228.973 89.9182 228.84V231.5ZM93.315 231.45C94.5416 230.53 95.4883 229.707 96.155 228.98C96.8283 228.247 97.165 227.53 97.165 226.83C97.165 226.37 97.0483 226.003 96.815 225.73C96.5883 225.45 96.215 225.31 95.695 225.31C95.1883 225.31 94.795 225.47 94.515 225.79C94.2416 226.103 94.0883 226.523 94.055 227.05H93.375C93.415 226.31 93.6416 225.737 94.055 225.33C94.475 224.917 95.0216 224.71 95.695 224.71C96.3416 224.71 96.865 224.893 97.265 225.26C97.665 225.62 97.865 226.133 97.865 226.8C97.865 227.607 97.5283 228.39 96.855 229.15C96.1883 229.903 95.365 230.64 94.385 231.36H98.085V231.95H93.315V231.45ZM103.698 225.43H100.038V227.99C100.204 227.757 100.448 227.567 100.768 227.42C101.088 227.267 101.434 227.19 101.808 227.19C102.354 227.19 102.801 227.303 103.148 227.53C103.494 227.75 103.744 228.04 103.898 228.4C104.051 228.753 104.128 229.133 104.128 229.54C104.128 230.007 104.038 230.43 103.858 230.81C103.684 231.183 103.414 231.48 103.048 231.7C102.688 231.92 102.238 232.03 101.698 232.03C101.011 232.03 100.454 231.853 100.028 231.5C99.6009 231.14 99.3409 230.657 99.2476 230.05H99.9376C100.024 230.49 100.224 230.83 100.538 231.07C100.851 231.31 101.238 231.43 101.698 231.43C102.278 231.43 102.714 231.26 103.008 230.92C103.308 230.573 103.458 230.117 103.458 229.55C103.458 228.997 103.308 228.567 103.008 228.26C102.708 227.947 102.278 227.79 101.718 227.79C101.331 227.79 100.991 227.88 100.698 228.06C100.404 228.24 100.188 228.483 100.048 228.79H99.3876V224.82H103.698V225.43ZM108.449 232L106.199 229.55V232H105.499V224.6H106.199V228.98L108.399 226.54H109.379L106.789 229.26L109.399 232H108.449ZM113.694 228V228.59H109.804V228H113.694ZM119.86 225.43H116.2V227.99C116.366 227.757 116.61 227.567 116.93 227.42C117.25 227.267 117.596 227.19 117.97 227.19C118.516 227.19 118.963 227.303 119.31 227.53C119.656 227.75 119.906 228.04 120.06 228.4C120.213 228.753 120.29 229.133 120.29 229.54C120.29 230.007 120.2 230.43 120.02 230.81C119.846 231.183 119.576 231.48 119.21 231.7C118.85 231.92 118.4 232.03 117.86 232.03C117.173 232.03 116.616 231.853 116.19 231.5C115.763 231.14 115.503 230.657 115.41 230.05H116.1C116.186 230.49 116.386 230.83 116.7 231.07C117.013 231.31 117.4 231.43 117.86 231.43C118.44 231.43 118.876 231.26 119.17 230.92C119.47 230.573 119.62 230.117 119.62 229.55C119.62 228.997 119.47 228.567 119.17 228.26C118.87 227.947 118.44 227.79 117.88 227.79C117.493 227.79 117.153 227.88 116.86 228.06C116.566 228.24 116.35 228.483 116.21 228.79H115.55V224.82H119.86V225.43ZM121.512 228.35C121.512 227.203 121.688 226.313 122.042 225.68C122.395 225.047 123.028 224.73 123.942 224.73C124.855 224.73 125.488 225.047 125.842 225.68C126.195 226.313 126.372 227.203 126.372 228.35C126.372 229.517 126.195 230.42 125.842 231.06C125.488 231.7 124.855 232.02 123.942 232.02C123.022 232.02 122.385 231.7 122.032 231.06C121.685 230.42 121.512 229.517 121.512 228.35ZM125.682 228.35C125.682 227.73 125.638 227.207 125.552 226.78C125.465 226.353 125.295 226.01 125.042 225.75C124.788 225.49 124.422 225.36 123.942 225.36C123.462 225.36 123.095 225.49 122.842 225.75C122.588 226.01 122.418 226.353 122.332 226.78C122.245 227.207 122.202 227.73 122.202 228.35C122.202 228.99 122.245 229.527 122.332 229.96C122.418 230.387 122.588 230.73 122.842 230.99C123.095 231.25 123.462 231.38 123.942 231.38C124.422 231.38 124.788 231.25 125.042 230.99C125.295 230.73 125.465 230.387 125.552 229.96C125.638 229.527 125.682 228.99 125.682 228.35ZM130.774 232L128.524 229.55V232H127.824V224.6H128.524V228.98L130.724 226.54H131.704L129.114 229.26L131.724 232H130.774Z" fill="#09100F"/>
<rect x="156.444" y="48" width="62.2222" height="160" rx="6" fill="#FF968C"/>
<path d="M170.376 230.16C170.376 230.473 170.299 230.773 170.146 231.06C169.992 231.34 169.762 231.573 169.456 231.76C169.149 231.947 168.776 232.05 168.336 232.07V232.87H167.896V232.06C167.302 232.007 166.822 231.813 166.456 231.48C166.089 231.14 165.892 230.72 165.866 230.22H166.616C166.642 230.52 166.762 230.793 166.976 231.04C167.196 231.28 167.502 231.427 167.896 231.48V228.71C167.449 228.59 167.089 228.47 166.816 228.35C166.549 228.23 166.322 228.047 166.136 227.8C165.949 227.547 165.856 227.21 165.856 226.79C165.856 226.263 166.039 225.83 166.406 225.49C166.772 225.143 167.269 224.957 167.896 224.93V224.09H168.336V224.94C168.889 224.993 169.332 225.173 169.666 225.48C169.999 225.787 170.196 226.17 170.256 226.63H169.516C169.476 226.383 169.352 226.153 169.146 225.94C168.946 225.727 168.676 225.593 168.336 225.54V228.21C168.769 228.323 169.122 228.443 169.396 228.57C169.676 228.69 169.909 228.877 170.096 229.13C170.282 229.383 170.376 229.727 170.376 230.16ZM166.566 226.76C166.566 227.133 166.679 227.417 166.906 227.61C167.139 227.797 167.469 227.953 167.896 228.08V225.51C167.496 225.53 167.172 225.647 166.926 225.86C166.686 226.073 166.566 226.373 166.566 226.76ZM168.336 231.5C168.762 231.473 169.092 231.34 169.326 231.1C169.559 230.853 169.676 230.55 169.676 230.19C169.676 229.81 169.559 229.523 169.326 229.33C169.099 229.137 168.769 228.973 168.336 228.84V231.5ZM176.392 225.43H172.732V227.99C172.899 227.757 173.142 227.567 173.462 227.42C173.782 227.267 174.129 227.19 174.502 227.19C175.049 227.19 175.496 227.303 175.842 227.53C176.189 227.75 176.439 228.04 176.592 228.4C176.746 228.753 176.822 229.133 176.822 229.54C176.822 230.007 176.732 230.43 176.552 230.81C176.379 231.183 176.109 231.48 175.742 231.7C175.382 231.92 174.932 232.03 174.392 232.03C173.706 232.03 173.149 231.853 172.722 231.5C172.296 231.14 172.036 230.657 171.942 230.05H172.632C172.719 230.49 172.919 230.83 173.232 231.07C173.546 231.31 173.932 231.43 174.392 231.43C174.972 231.43 175.409 231.26 175.702 230.92C176.002 230.573 176.152 230.117 176.152 229.55C176.152 228.997 176.002 228.567 175.702 228.26C175.402 227.947 174.972 227.79 174.412 227.79C174.026 227.79 173.686 227.88 173.392 228.06C173.099 228.24 172.882 228.483 172.742 228.79H172.082V224.82H176.392V225.43ZM178.044 228.35C178.044 227.203 178.221 226.313 178.574 225.68C178.928 225.047 179.561 224.73 180.474 224.73C181.388 224.73 182.021 225.047 182.374 225.68C182.728 226.313 182.904 227.203 182.904 228.35C182.904 229.517 182.728 230.42 182.374 231.06C182.021 231.7 181.388 232.02 180.474 232.02C179.554 232.02 178.918 231.7 178.564 231.06C178.218 230.42 178.044 229.517 178.044 228.35ZM182.214 228.35C182.214 227.73 182.171 227.207 182.084 226.78C181.998 226.353 181.828 226.01 181.574 225.75C181.321 225.49 180.954 225.36 180.474 225.36C179.994 225.36 179.628 225.49 179.374 225.75C179.121 226.01 178.951 226.353 178.864 226.78C178.778 227.207 178.734 227.73 178.734 228.35C178.734 228.99 178.778 229.527 178.864 229.96C178.951 230.387 179.121 230.73 179.374 230.99C179.628 231.25 179.994 231.38 180.474 231.38C180.954 231.38 181.321 231.25 181.574 230.99C181.828 230.73 181.998 230.387 182.084 229.96C182.171 229.527 182.214 228.99 182.214 228.35ZM187.306 232L185.056 229.55V232H184.356V224.6H185.056V228.98L187.256 226.54H188.236L185.646 229.26L188.256 232H187.306ZM192.551 228V228.59H188.661V228H192.551ZM198.487 225.38L195.697 232H194.987L197.807 225.44H193.807V224.84H198.487V225.38ZM204.049 225.43H200.389V227.99C200.555 227.757 200.799 227.567 201.119 227.42C201.439 227.267 201.785 227.19 202.159 227.19C202.705 227.19 203.152 227.303 203.499 227.53C203.845 227.75 204.095 228.04 204.249 228.4C204.402 228.753 204.479 229.133 204.479 229.54C204.479 230.007 204.389 230.43 204.209 230.81C204.035 231.183 203.765 231.48 203.399 231.7C203.039 231.92 202.589 232.03 202.049 232.03C201.362 232.03 200.805 231.853 200.379 231.5C199.952 231.14 199.692 230.657 199.599 230.05H200.289C200.375 230.49 200.575 230.83 200.889 231.07C201.202 231.31 201.589 231.43 202.049 231.43C202.629 231.43 203.065 231.26 203.359 230.92C203.659 230.573 203.809 230.117 203.809 229.55C203.809 228.997 203.659 228.567 203.359 228.26C203.059 227.947 202.629 227.79 202.069 227.79C201.682 227.79 201.342 227.88 201.049 228.06C200.755 228.24 200.539 228.483 200.399 228.79H199.739V224.82H204.049V225.43ZM208.801 232L206.551 229.55V232H205.851V224.6H206.551V228.98L208.751 226.54H209.731L207.141 229.26L209.751 232H208.801Z" fill="#09100F"/>
<rect x="234.667" y="73" width="62.2222" height="135" rx="6" fill="#25AE9D"/>
<path d="M247.143 230.16C247.143 230.473 247.066 230.773 246.913 231.06C246.759 231.34 246.529 231.573 246.223 231.76C245.916 231.947 245.543 232.05 245.103 232.07V232.87H244.663V232.06C244.069 232.007 243.589 231.813 243.223 231.48C242.856 231.14 242.659 230.72 242.633 230.22H243.383C243.409 230.52 243.529 230.793 243.743 231.04C243.963 231.28 244.269 231.427 244.663 231.48V228.71C244.216 228.59 243.856 228.47 243.583 228.35C243.316 228.23 243.089 228.047 242.903 227.8C242.716 227.547 242.623 227.21 242.623 226.79C242.623 226.263 242.806 225.83 243.173 225.49C243.539 225.143 244.036 224.957 244.663 224.93V224.09H245.103V224.94C245.656 224.993 246.099 225.173 246.433 225.48C246.766 225.787 246.963 226.17 247.023 226.63H246.283C246.243 226.383 246.119 226.153 245.913 225.94C245.713 225.727 245.443 225.593 245.103 225.54V228.21C245.536 228.323 245.889 228.443 246.163 228.57C246.443 228.69 246.676 228.877 246.863 229.13C247.049 229.383 247.143 229.727 247.143 230.16ZM243.333 226.76C243.333 227.133 243.446 227.417 243.673 227.61C243.906 227.797 244.236 227.953 244.663 228.08V225.51C244.263 225.53 243.939 225.647 243.693 225.86C243.453 226.073 243.333 226.373 243.333 226.76ZM245.103 231.5C245.529 231.473 245.859 231.34 246.093 231.1C246.326 230.853 246.443 230.55 246.443 230.19C246.443 229.81 246.326 229.523 246.093 229.33C245.866 229.137 245.536 228.973 245.103 228.84V231.5ZM252.93 225.38L250.14 232H249.43L252.25 225.44H248.25V224.84H252.93V225.38ZM258.492 225.43H254.832V227.99C254.998 227.757 255.242 227.567 255.562 227.42C255.882 227.267 256.228 227.19 256.602 227.19C257.148 227.19 257.595 227.303 257.942 227.53C258.288 227.75 258.538 228.04 258.692 228.4C258.845 228.753 258.922 229.133 258.922 229.54C258.922 230.007 258.832 230.43 258.652 230.81C258.478 231.183 258.208 231.48 257.842 231.7C257.482 231.92 257.032 232.03 256.492 232.03C255.805 232.03 255.248 231.853 254.822 231.5C254.395 231.14 254.135 230.657 254.042 230.05H254.732C254.818 230.49 255.018 230.83 255.332 231.07C255.645 231.31 256.032 231.43 256.492 231.43C257.072 231.43 257.508 231.26 257.802 230.92C258.102 230.573 258.252 230.117 258.252 229.55C258.252 228.997 258.102 228.567 257.802 228.26C257.502 227.947 257.072 227.79 256.512 227.79C256.125 227.79 255.785 227.88 255.492 228.06C255.198 228.24 254.982 228.483 254.842 228.79H254.182V224.82H258.492V225.43ZM263.243 232L260.993 229.55V232H260.293V224.6H260.993V228.98L263.193 226.54H264.173L261.583 229.26L264.193 232H263.243ZM268.488 228V228.59H264.598V228H268.488ZM269.794 225.46V224.83H271.494V232H270.784V225.46H269.794ZM273.054 228.35C273.054 227.203 273.23 226.313 273.584 225.68C273.937 225.047 274.57 224.73 275.484 224.73C276.397 224.73 277.03 225.047 277.384 225.68C277.737 226.313 277.914 227.203 277.914 228.35C277.914 229.517 277.737 230.42 277.384 231.06C277.03 231.7 276.397 232.02 275.484 232.02C274.564 232.02 273.927 231.7 273.574 231.06C273.227 230.42 273.054 229.517 273.054 228.35ZM277.224 228.35C277.224 227.73 277.18 227.207 277.094 226.78C277.007 226.353 276.837 226.01 276.584 225.75C276.33 225.49 275.964 225.36 275.484 225.36C275.004 225.36 274.637 225.49 274.384 225.75C274.13 226.01 273.96 226.353 273.874 226.78C273.787 227.207 273.744 227.73 273.744 228.35C273.744 228.99 273.787 229.527 273.874 229.96C273.96 230.387 274.13 230.73 274.384 230.99C274.637 231.25 275.004 231.38 275.484 231.38C275.964 231.38 276.33 231.25 276.584 230.99C276.837 230.73 277.007 230.387 277.094 229.96C277.18 229.527 277.224 228.99 277.224 228.35ZM279.216 228.35C279.216 227.203 279.392 226.313 279.746 225.68C280.099 225.047 280.732 224.73 281.646 224.73C282.559 224.73 283.192 225.047 283.546 225.68C283.899 226.313 284.076 227.203 284.076 228.35C284.076 229.517 283.899 230.42 283.546 231.06C283.192 231.7 282.559 232.02 281.646 232.02C280.726 232.02 280.089 231.7 279.736 231.06C279.389 230.42 279.216 229.517 279.216 228.35ZM283.386 228.35C283.386 227.73 283.342 227.207 283.256 226.78C283.169 226.353 282.999 226.01 282.746 225.75C282.492 225.49 282.126 225.36 281.646 225.36C281.166 225.36 280.799 225.49 280.546 225.75C280.292 226.01 280.122 226.353 280.036 226.78C279.949 227.207 279.906 227.73 279.906 228.35C279.906 228.99 279.949 229.527 280.036 229.96C280.122 230.387 280.292 230.73 280.546 230.99C280.799 231.25 281.166 231.38 281.646 231.38C282.126 231.38 282.492 231.25 282.746 230.99C282.999 230.73 283.169 230.387 283.256 229.96C283.342 229.527 283.386 228.99 283.386 228.35ZM288.478 232L286.228 229.55V232H285.528V224.6H286.228V228.98L288.428 226.54H289.408L286.818 229.26L289.428 232H288.478Z" fill="#09100F"/>
<rect x="312.889" y="61" width="62.2222" height="147" rx="6" fill="#65C9BD"/>
<path d="M323.71 230.16C323.71 230.473 323.633 230.773 323.48 231.06C323.326 231.34 323.096 231.573 322.79 231.76C322.483 231.947 322.11 232.05 321.67 232.07V232.87H321.23V232.06C320.636 232.007 320.156 231.813 319.79 231.48C319.423 231.14 319.226 230.72 319.2 230.22H319.95C319.976 230.52 320.096 230.793 320.31 231.04C320.53 231.28 320.836 231.427 321.23 231.48V228.71C320.783 228.59 320.423 228.47 320.15 228.35C319.883 228.23 319.656 228.047 319.47 227.8C319.283 227.547 319.19 227.21 319.19 226.79C319.19 226.263 319.373 225.83 319.74 225.49C320.106 225.143 320.603 224.957 321.23 224.93V224.09H321.67V224.94C322.223 224.993 322.666 225.173 323 225.48C323.333 225.787 323.53 226.17 323.59 226.63H322.85C322.81 226.383 322.686 226.153 322.48 225.94C322.28 225.727 322.01 225.593 321.67 225.54V228.21C322.103 228.323 322.456 228.443 322.73 228.57C323.01 228.69 323.243 228.877 323.43 229.13C323.616 229.383 323.71 229.727 323.71 230.16ZM319.9 226.76C319.9 227.133 320.013 227.417 320.24 227.61C320.473 227.797 320.803 227.953 321.23 228.08V225.51C320.83 225.53 320.506 225.647 320.26 225.86C320.02 226.073 319.9 226.373 319.9 226.76ZM321.67 231.5C322.096 231.473 322.426 231.34 322.66 231.1C322.893 230.853 323.01 230.55 323.01 230.19C323.01 229.81 322.893 229.523 322.66 229.33C322.433 229.137 322.103 228.973 321.67 228.84V231.5ZM324.866 225.46V224.83H326.566V232H325.856V225.46H324.866ZM328.126 228.35C328.126 227.203 328.303 226.313 328.656 225.68C329.01 225.047 329.643 224.73 330.556 224.73C331.47 224.73 332.103 225.047 332.456 225.68C332.81 226.313 332.986 227.203 332.986 228.35C332.986 229.517 332.81 230.42 332.456 231.06C332.103 231.7 331.47 232.02 330.556 232.02C329.636 232.02 329 231.7 328.646 231.06C328.3 230.42 328.126 229.517 328.126 228.35ZM332.296 228.35C332.296 227.73 332.253 227.207 332.166 226.78C332.08 226.353 331.91 226.01 331.656 225.75C331.403 225.49 331.036 225.36 330.556 225.36C330.076 225.36 329.71 225.49 329.456 225.75C329.203 226.01 329.033 226.353 328.946 226.78C328.86 227.207 328.816 227.73 328.816 228.35C328.816 228.99 328.86 229.527 328.946 229.96C329.033 230.387 329.203 230.73 329.456 230.99C329.71 231.25 330.076 231.38 330.556 231.38C331.036 231.38 331.403 231.25 331.656 230.99C331.91 230.73 332.08 230.387 332.166 229.96C332.253 229.527 332.296 228.99 332.296 228.35ZM334.288 228.35C334.288 227.203 334.465 226.313 334.818 225.68C335.172 225.047 335.805 224.73 336.718 224.73C337.632 224.73 338.265 225.047 338.618 225.68C338.972 226.313 339.148 227.203 339.148 228.35C339.148 229.517 338.972 230.42 338.618 231.06C338.265 231.7 337.632 232.02 336.718 232.02C335.798 232.02 335.162 231.7 334.808 231.06C334.462 230.42 334.288 229.517 334.288 228.35ZM338.458 228.35C338.458 227.73 338.415 227.207 338.328 226.78C338.242 226.353 338.072 226.01 337.818 225.75C337.565 225.49 337.198 225.36 336.718 225.36C336.238 225.36 335.872 225.49 335.618 225.75C335.365 226.01 335.195 226.353 335.108 226.78C335.022 227.207 334.978 227.73 334.978 228.35C334.978 228.99 335.022 229.527 335.108 229.96C335.195 230.387 335.365 230.73 335.618 230.99C335.872 231.25 336.238 231.38 336.718 231.38C337.198 231.38 337.565 231.25 337.818 230.99C338.072 230.73 338.242 230.387 338.328 229.96C338.415 229.527 338.458 228.99 338.458 228.35ZM343.551 232L341.301 229.55V232H340.601V224.6H341.301V228.98L343.501 226.54H344.481L341.891 229.26L344.501 232H343.551ZM348.795 228V228.59H344.905V228H348.795ZM350.101 225.46V224.83H351.801V232H351.091V225.46H350.101ZM353.221 231.45C354.447 230.53 355.394 229.707 356.061 228.98C356.734 228.247 357.071 227.53 357.071 226.83C357.071 226.37 356.954 226.003 356.721 225.73C356.494 225.45 356.121 225.31 355.601 225.31C355.094 225.31 354.701 225.47 354.421 225.79C354.147 226.103 353.994 226.523 353.961 227.05H353.281C353.321 226.31 353.547 225.737 353.961 225.33C354.381 224.917 354.927 224.71 355.601 224.71C356.247 224.71 356.771 224.893 357.171 225.26C357.571 225.62 357.771 226.133 357.771 226.8C357.771 227.607 357.434 228.39 356.761 229.15C356.094 229.903 355.271 230.64 354.291 231.36H357.991V231.95H353.221V231.45ZM363.603 225.43H359.943V227.99C360.11 227.757 360.353 227.567 360.673 227.42C360.993 227.267 361.34 227.19 361.713 227.19C362.26 227.19 362.707 227.303 363.053 227.53C363.4 227.75 363.65 228.04 363.803 228.4C363.957 228.753 364.033 229.133 364.033 229.54C364.033 230.007 363.943 230.43 363.763 230.81C363.59 231.183 363.32 231.48 362.953 231.7C362.593 231.92 362.143 232.03 361.603 232.03C360.917 232.03 360.36 231.853 359.933 231.5C359.507 231.14 359.247 230.657 359.153 230.05H359.843C359.93 230.49 360.13 230.83 360.443 231.07C360.757 231.31 361.143 231.43 361.603 231.43C362.183 231.43 362.62 231.26 362.913 230.92C363.213 230.573 363.363 230.117 363.363 229.55C363.363 228.997 363.213 228.567 362.913 228.26C362.613 227.947 362.183 227.79 361.623 227.79C361.237 227.79 360.897 227.88 360.603 228.06C360.31 228.24 360.093 228.483 359.953 228.79H359.293V224.82H363.603V225.43ZM368.355 232L366.105 229.55V232H365.405V224.6H366.105V228.98L368.305 226.54H369.285L366.695 229.26L369.305 232H368.355Z" fill="#09100F"/>
<rect x="391.111" y="121" width="62.2222" height="87" rx="6" fill="#A7EAE2"/>
<path d="M401.927 230.16C401.927 230.473 401.851 230.773 401.697 231.06C401.544 231.34 401.314 231.573 401.007 231.76C400.701 231.947 400.327 232.05 399.887 232.07V232.87H399.447V232.06C398.854 232.007 398.374 231.813 398.007 231.48C397.641 231.14 397.444 230.72 397.417 230.22H398.167C398.194 230.52 398.314 230.793 398.527 231.04C398.747 231.28 399.054 231.427 399.447 231.48V228.71C399.001 228.59 398.641 228.47 398.367 228.35C398.101 228.23 397.874 228.047 397.687 227.8C397.501 227.547 397.407 227.21 397.407 226.79C397.407 226.263 397.591 225.83 397.957 225.49C398.324 225.143 398.821 224.957 399.447 224.93V224.09H399.887V224.94C400.441 224.993 400.884 225.173 401.217 225.48C401.551 225.787 401.747 226.17 401.807 226.63H401.067C401.027 226.383 400.904 226.153 400.697 225.94C400.497 225.727 400.227 225.593 399.887 225.54V228.21C400.321 228.323 400.674 228.443 400.947 228.57C401.227 228.69 401.461 228.877 401.647 229.13C401.834 229.383 401.927 229.727 401.927 230.16ZM398.117 226.76C398.117 227.133 398.231 227.417 398.457 227.61C398.691 227.797 399.021 227.953 399.447 228.08V225.51C399.047 225.53 398.724 225.647 398.477 225.86C398.237 226.073 398.117 226.373 398.117 226.76ZM399.887 231.5C400.314 231.473 400.644 231.34 400.877 231.1C401.111 230.853 401.227 230.55 401.227 230.19C401.227 229.81 401.111 229.523 400.877 229.33C400.651 229.137 400.321 228.973 399.887 228.84V231.5ZM403.084 225.46V224.83H404.784V232H404.074V225.46H403.084ZM406.204 231.45C407.431 230.53 408.377 229.707 409.044 228.98C409.717 228.247 410.054 227.53 410.054 226.83C410.054 226.37 409.937 226.003 409.704 225.73C409.477 225.45 409.104 225.31 408.584 225.31C408.077 225.31 407.684 225.47 407.404 225.79C407.131 226.103 406.977 226.523 406.944 227.05H406.264C406.304 226.31 406.531 225.737 406.944 225.33C407.364 224.917 407.911 224.71 408.584 224.71C409.231 224.71 409.754 224.893 410.154 225.26C410.554 225.62 410.754 226.133 410.754 226.8C410.754 227.607 410.417 228.39 409.744 229.15C409.077 229.903 408.254 230.64 407.274 231.36H410.974V231.95H406.204V231.45ZM416.587 225.43H412.927V227.99C413.093 227.757 413.337 227.567 413.657 227.42C413.977 227.267 414.323 227.19 414.697 227.19C415.243 227.19 415.69 227.303 416.037 227.53C416.383 227.75 416.633 228.04 416.787 228.4C416.94 228.753 417.017 229.133 417.017 229.54C417.017 230.007 416.927 230.43 416.747 230.81C416.573 231.183 416.303 231.48 415.937 231.7C415.577 231.92 415.127 232.03 414.587 232.03C413.9 232.03 413.343 231.853 412.917 231.5C412.49 231.14 412.23 230.657 412.137 230.05H412.827C412.913 230.49 413.113 230.83 413.427 231.07C413.74 231.31 414.127 231.43 414.587 231.43C415.167 231.43 415.603 231.26 415.897 230.92C416.197 230.573 416.347 230.117 416.347 229.55C416.347 228.997 416.197 228.567 415.897 228.26C415.597 227.947 415.167 227.79 414.607 227.79C414.22 227.79 413.88 227.88 413.587 228.06C413.293 228.24 413.077 228.483 412.937 228.79H412.277V224.82H416.587V225.43ZM421.339 232L419.089 229.55V232H418.389V224.6H419.089V228.98L421.289 226.54H422.269L419.679 229.26L422.289 232H421.339ZM426.583 228V228.59H422.693V228H426.583ZM427.889 225.46V224.83H429.589V232H428.879V225.46H427.889ZM435.669 225.43H432.009V227.99C432.175 227.757 432.419 227.567 432.739 227.42C433.059 227.267 433.405 227.19 433.779 227.19C434.325 227.19 434.772 227.303 435.119 227.53C435.465 227.75 435.715 228.04 435.869 228.4C436.022 228.753 436.099 229.133 436.099 229.54C436.099 230.007 436.009 230.43 435.829 230.81C435.655 231.183 435.385 231.48 435.019 231.7C434.659 231.92 434.209 232.03 433.669 232.03C432.982 232.03 432.425 231.853 431.999 231.5C431.572 231.14 431.312 230.657 431.219 230.05H431.909C431.995 230.49 432.195 230.83 432.509 231.07C432.822 231.31 433.209 231.43 433.669 231.43C434.249 231.43 434.685 231.26 434.979 230.92C435.279 230.573 435.429 230.117 435.429 229.55C435.429 228.997 435.279 228.567 434.979 228.26C434.679 227.947 434.249 227.79 433.689 227.79C433.302 227.79 432.962 227.88 432.669 228.06C432.375 228.24 432.159 228.483 432.019 228.79H431.359V224.82H435.669V225.43ZM437.321 228.35C437.321 227.203 437.497 226.313 437.851 225.68C438.204 225.047 438.837 224.73 439.751 224.73C440.664 224.73 441.297 225.047 441.651 225.68C442.004 226.313 442.181 227.203 442.181 228.35C442.181 229.517 442.004 230.42 441.651 231.06C441.297 231.7 440.664 232.02 439.751 232.02C438.831 232.02 438.194 231.7 437.841 231.06C437.494 230.42 437.321 229.517 437.321 228.35ZM441.491 228.35C441.491 227.73 441.447 227.207 441.361 226.78C441.274 226.353 441.104 226.01 440.851 225.75C440.597 225.49 440.231 225.36 439.751 225.36C439.271 225.36 438.904 225.49 438.651 225.75C438.397 226.01 438.227 226.353 438.141 226.78C438.054 227.207 438.011 227.73 438.011 228.35C438.011 228.99 438.054 229.527 438.141 229.96C438.227 230.387 438.397 230.73 438.651 230.99C438.904 231.25 439.271 231.38 439.751 231.38C440.231 231.38 440.597 231.25 440.851 230.99C441.104 230.73 441.274 230.387 441.361 229.96C441.447 229.527 441.491 228.99 441.491 228.35ZM446.583 232L444.333 229.55V232H443.633V224.6H444.333V228.98L446.533 226.54H447.513L444.923 229.26L447.533 232H446.583Z" fill="#09100F"/>
<rect x="469.333" y="73" width="62.2222" height="135" rx="6" fill="#171E1D"/>
<path d="M480.345 230.16C480.345 230.473 480.268 230.773 480.115 231.06C479.962 231.34 479.732 231.573 479.425 231.76C479.118 231.947 478.745 232.05 478.305 232.07V232.87H477.865V232.06C477.272 232.007 476.792 231.813 476.425 231.48C476.058 231.14 475.862 230.72 475.835 230.22H476.585C476.612 230.52 476.732 230.793 476.945 231.04C477.165 231.28 477.472 231.427 477.865 231.48V228.71C477.418 228.59 477.058 228.47 476.785 228.35C476.518 228.23 476.292 228.047 476.105 227.8C475.918 227.547 475.825 227.21 475.825 226.79C475.825 226.263 476.008 225.83 476.375 225.49C476.742 225.143 477.238 224.957 477.865 224.93V224.09H478.305V224.94C478.858 224.993 479.302 225.173 479.635 225.48C479.968 225.787 480.165 226.17 480.225 226.63H479.485C479.445 226.383 479.322 226.153 479.115 225.94C478.915 225.727 478.645 225.593 478.305 225.54V228.21C478.738 228.323 479.092 228.443 479.365 228.57C479.645 228.69 479.878 228.877 480.065 229.13C480.252 229.383 480.345 229.727 480.345 230.16ZM476.535 226.76C476.535 227.133 476.648 227.417 476.875 227.61C477.108 227.797 477.438 227.953 477.865 228.08V225.51C477.465 225.53 477.142 225.647 476.895 225.86C476.655 226.073 476.535 226.373 476.535 226.76ZM478.305 231.5C478.732 231.473 479.062 231.34 479.295 231.1C479.528 230.853 479.645 230.55 479.645 230.19C479.645 229.81 479.528 229.523 479.295 229.33C479.068 229.137 478.738 228.973 478.305 228.84V231.5ZM481.502 225.46V224.83H483.202V232H482.492V225.46H481.502ZM489.282 225.43H485.622V227.99C485.788 227.757 486.032 227.567 486.352 227.42C486.672 227.267 487.018 227.19 487.392 227.19C487.938 227.19 488.385 227.303 488.732 227.53C489.078 227.75 489.328 228.04 489.482 228.4C489.635 228.753 489.712 229.133 489.712 229.54C489.712 230.007 489.622 230.43 489.442 230.81C489.268 231.183 488.998 231.48 488.632 231.7C488.272 231.92 487.822 232.03 487.282 232.03C486.595 232.03 486.038 231.853 485.612 231.5C485.185 231.14 484.925 230.657 484.832 230.05H485.522C485.608 230.49 485.808 230.83 486.122 231.07C486.435 231.31 486.822 231.43 487.282 231.43C487.862 231.43 488.298 231.26 488.592 230.92C488.892 230.573 489.042 230.117 489.042 229.55C489.042 228.997 488.892 228.567 488.592 228.26C488.292 227.947 487.862 227.79 487.302 227.79C486.915 227.79 486.575 227.88 486.282 228.06C485.988 228.24 485.772 228.483 485.632 228.79H484.972V224.82H489.282V225.43ZM490.933 228.35C490.933 227.203 491.11 226.313 491.463 225.68C491.817 225.047 492.45 224.73 493.363 224.73C494.277 224.73 494.91 225.047 495.263 225.68C495.617 226.313 495.793 227.203 495.793 228.35C495.793 229.517 495.617 230.42 495.263 231.06C494.91 231.7 494.277 232.02 493.363 232.02C492.443 232.02 491.807 231.7 491.453 231.06C491.107 230.42 490.933 229.517 490.933 228.35ZM495.103 228.35C495.103 227.73 495.06 227.207 494.973 226.78C494.887 226.353 494.717 226.01 494.463 225.75C494.21 225.49 493.843 225.36 493.363 225.36C492.883 225.36 492.517 225.49 492.263 225.75C492.01 226.01 491.84 226.353 491.753 226.78C491.667 227.207 491.623 227.73 491.623 228.35C491.623 228.99 491.667 229.527 491.753 229.96C491.84 230.387 492.01 230.73 492.263 230.99C492.517 231.25 492.883 231.38 493.363 231.38C493.843 231.38 494.21 231.25 494.463 230.99C494.717 230.73 494.887 230.387 494.973 229.96C495.06 229.527 495.103 228.99 495.103 228.35ZM500.196 232L497.946 229.55V232H497.246V224.6H497.946V228.98L500.146 226.54H501.126L498.536 229.26L501.146 232H500.196ZM505.44 228V228.59H501.55V228H505.44ZM506.746 225.46V224.83H508.446V232H507.736V225.46H506.746ZM514.296 225.38L511.506 232H510.796L513.616 225.44H509.616V224.84H514.296V225.38ZM519.858 225.43H516.198V227.99C516.364 227.757 516.608 227.567 516.928 227.42C517.248 227.267 517.594 227.19 517.968 227.19C518.514 227.19 518.961 227.303 519.308 227.53C519.654 227.75 519.904 228.04 520.058 228.4C520.211 228.753 520.288 229.133 520.288 229.54C520.288 230.007 520.198 230.43 520.018 230.81C519.844 231.183 519.574 231.48 519.208 231.7C518.848 231.92 518.398 232.03 517.858 232.03C517.171 232.03 516.614 231.853 516.188 231.5C515.761 231.14 515.501 230.657 515.408 230.05H516.098C516.184 230.49 516.384 230.83 516.698 231.07C517.011 231.31 517.398 231.43 517.858 231.43C518.438 231.43 518.874 231.26 519.168 230.92C519.468 230.573 519.618 230.117 519.618 229.55C519.618 228.997 519.468 228.567 519.168 228.26C518.868 227.947 518.438 227.79 517.878 227.79C517.491 227.79 517.151 227.88 516.858 228.06C516.564 228.24 516.348 228.483 516.208 228.79H515.548V224.82H519.858V225.43ZM524.61 232L522.36 229.55V232H521.66V224.6H522.36V228.98L524.56 226.54H525.54L522.95 229.26L525.56 232H524.61Z" fill="#09100F"/>
<rect x="547.556" y="103" width="62.2222" height="105" rx="6" fill="#6C6C6C"/>
<path d="M557.171 230.16C557.171 230.473 557.094 230.773 556.941 231.06C556.787 231.34 556.557 231.573 556.251 231.76C555.944 231.947 555.571 232.05 555.131 232.07V232.87H554.691V232.06C554.097 232.007 553.617 231.813 553.251 231.48C552.884 231.14 552.687 230.72 552.661 230.22H553.411C553.437 230.52 553.557 230.793 553.771 231.04C553.991 231.28 554.297 231.427 554.691 231.48V228.71C554.244 228.59 553.884 228.47 553.611 228.35C553.344 228.23 553.117 228.047 552.931 227.8C552.744 227.547 552.651 227.21 552.651 226.79C552.651 226.263 552.834 225.83 553.201 225.49C553.567 225.143 554.064 224.957 554.691 224.93V224.09H555.131V224.94C555.684 224.993 556.127 225.173 556.461 225.48C556.794 225.787 556.991 226.17 557.051 226.63H556.311C556.271 226.383 556.147 226.153 555.941 225.94C555.741 225.727 555.471 225.593 555.131 225.54V228.21C555.564 228.323 555.917 228.443 556.191 228.57C556.471 228.69 556.704 228.877 556.891 229.13C557.077 229.383 557.171 229.727 557.171 230.16ZM553.361 226.76C553.361 227.133 553.474 227.417 553.701 227.61C553.934 227.797 554.264 227.953 554.691 228.08V225.51C554.291 225.53 553.967 225.647 553.721 225.86C553.481 226.073 553.361 226.373 553.361 226.76ZM555.131 231.5C555.557 231.473 555.887 231.34 556.121 231.1C556.354 230.853 556.471 230.55 556.471 230.19C556.471 229.81 556.354 229.523 556.121 229.33C555.894 229.137 555.564 228.973 555.131 228.84V231.5ZM558.327 225.46V224.83H560.027V232H559.317V225.46H558.327ZM565.877 225.38L563.087 232H562.377L565.197 225.44H561.197V224.84H565.877V225.38ZM571.439 225.43H567.779V227.99C567.946 227.757 568.189 227.567 568.509 227.42C568.829 227.267 569.176 227.19 569.549 227.19C570.096 227.19 570.543 227.303 570.889 227.53C571.236 227.75 571.486 228.04 571.639 228.4C571.793 228.753 571.869 229.133 571.869 229.54C571.869 230.007 571.779 230.43 571.599 230.81C571.426 231.183 571.156 231.48 570.789 231.7C570.429 231.92 569.979 232.03 569.439 232.03C568.753 232.03 568.196 231.853 567.769 231.5C567.343 231.14 567.083 230.657 566.989 230.05H567.679C567.766 230.49 567.966 230.83 568.279 231.07C568.593 231.31 568.979 231.43 569.439 231.43C570.019 231.43 570.456 231.26 570.749 230.92C571.049 230.573 571.199 230.117 571.199 229.55C571.199 228.997 571.049 228.567 570.749 228.26C570.449 227.947 570.019 227.79 569.459 227.79C569.073 227.79 568.733 227.88 568.439 228.06C568.146 228.24 567.929 228.483 567.789 228.79H567.129V224.82H571.439V225.43ZM576.191 232L573.941 229.55V232H573.241V224.6H573.941V228.98L576.141 226.54H577.121L574.531 229.26L577.141 232H576.191ZM581.436 228V228.59H577.546V228H581.436ZM582.941 231.45C584.168 230.53 585.115 229.707 585.781 228.98C586.455 228.247 586.791 227.53 586.791 226.83C586.791 226.37 586.675 226.003 586.441 225.73C586.215 225.45 585.841 225.31 585.321 225.31C584.815 225.31 584.421 225.47 584.141 225.79C583.868 226.103 583.715 226.523 583.681 227.05H583.001C583.041 226.31 583.268 225.737 583.681 225.33C584.101 224.917 584.648 224.71 585.321 224.71C585.968 224.71 586.491 224.893 586.891 225.26C587.291 225.62 587.491 226.133 587.491 226.8C587.491 227.607 587.155 228.39 586.481 229.15C585.815 229.903 584.991 230.64 584.011 231.36H587.711V231.95H582.941V231.45ZM588.804 228.35C588.804 227.203 588.981 226.313 589.334 225.68C589.687 225.047 590.321 224.73 591.234 224.73C592.147 224.73 592.781 225.047 593.134 225.68C593.487 226.313 593.664 227.203 593.664 228.35C593.664 229.517 593.487 230.42 593.134 231.06C592.781 231.7 592.147 232.02 591.234 232.02C590.314 232.02 589.677 231.7 589.324 231.06C588.977 230.42 588.804 229.517 588.804 228.35ZM592.974 228.35C592.974 227.73 592.931 227.207 592.844 226.78C592.757 226.353 592.587 226.01 592.334 225.75C592.081 225.49 591.714 225.36 591.234 225.36C590.754 225.36 590.387 225.49 590.134 225.75C589.881 226.01 589.711 226.353 589.624 226.78C589.537 227.207 589.494 227.73 589.494 228.35C589.494 228.99 589.537 229.527 589.624 229.96C589.711 230.387 589.881 230.73 590.134 230.99C590.387 231.25 590.754 231.38 591.234 231.38C591.714 231.38 592.081 231.25 592.334 230.99C592.587 230.73 592.757 230.387 592.844 229.96C592.931 229.527 592.974 228.99 592.974 228.35ZM594.966 228.35C594.966 227.203 595.143 226.313 595.496 225.68C595.85 225.047 596.483 224.73 597.396 224.73C598.31 224.73 598.943 225.047 599.296 225.68C599.65 226.313 599.826 227.203 599.826 228.35C599.826 229.517 599.65 230.42 599.296 231.06C598.943 231.7 598.31 232.02 597.396 232.02C596.476 232.02 595.84 231.7 595.486 231.06C595.14 230.42 594.966 229.517 594.966 228.35ZM599.136 228.35C599.136 227.73 599.093 227.207 599.006 226.78C598.92 226.353 598.75 226.01 598.496 225.75C598.243 225.49 597.876 225.36 597.396 225.36C596.916 225.36 596.55 225.49 596.296 225.75C596.043 226.01 595.873 226.353 595.786 226.78C595.7 227.207 595.656 227.73 595.656 228.35C595.656 228.99 595.7 229.527 595.786 229.96C595.873 230.387 596.043 230.73 596.296 230.99C596.55 231.25 596.916 231.38 597.396 231.38C597.876 231.38 598.243 231.25 598.496 230.99C598.75 230.73 598.92 230.387 599.006 229.96C599.093 229.527 599.136 228.99 599.136 228.35ZM604.228 232L601.978 229.55V232H601.278V224.6H601.978V228.98L604.178 226.54H605.158L602.568 229.26L605.178 232H604.228Z" fill="#09100F"/>
<rect x="625.778" y="140" width="62.2222" height="68" rx="6" fill="#D5D5D5"/>
<path d="M636.417 232.08C635.904 232.08 635.44 231.967 635.027 231.74C634.62 231.507 634.297 231.18 634.057 230.76C633.824 230.333 633.707 229.837 633.707 229.27C633.707 228.703 633.827 228.21 634.067 227.79C634.307 227.363 634.634 227.037 635.047 226.81C635.46 226.577 635.924 226.46 636.437 226.46C636.95 226.46 637.414 226.577 637.827 226.81C638.247 227.037 638.574 227.363 638.807 227.79C639.047 228.21 639.167 228.703 639.167 229.27C639.167 229.83 639.047 230.323 638.807 230.75C638.567 231.177 638.237 231.507 637.817 231.74C637.397 231.967 636.93 232.08 636.417 232.08ZM636.417 231.47C636.777 231.47 637.11 231.39 637.417 231.23C637.724 231.063 637.97 230.817 638.157 230.49C638.35 230.157 638.447 229.75 638.447 229.27C638.447 228.79 638.354 228.387 638.167 228.06C637.98 227.727 637.734 227.48 637.427 227.32C637.12 227.153 636.787 227.07 636.427 227.07C636.067 227.07 635.734 227.153 635.427 227.32C635.12 227.48 634.874 227.727 634.687 228.06C634.507 228.387 634.417 228.79 634.417 229.27C634.417 229.75 634.507 230.157 634.687 230.49C634.874 230.817 635.117 231.063 635.417 231.23C635.724 231.39 636.057 231.47 636.417 231.47ZM642.383 231.32L644.223 226.54H644.963L642.773 232H641.983L639.793 226.54H640.543L642.383 231.32ZM650.852 228.99C650.852 229.23 650.845 229.413 650.832 229.54H646.302C646.322 229.953 646.422 230.307 646.602 230.6C646.782 230.893 647.018 231.117 647.312 231.27C647.605 231.417 647.925 231.49 648.272 231.49C648.725 231.49 649.105 231.38 649.412 231.16C649.725 230.94 649.932 230.643 650.032 230.27H650.772C650.638 230.803 650.352 231.24 649.912 231.58C649.478 231.913 648.932 232.08 648.272 232.08C647.758 232.08 647.298 231.967 646.892 231.74C646.485 231.507 646.165 231.18 645.932 230.76C645.705 230.333 645.592 229.837 645.592 229.27C645.592 228.703 645.705 228.207 645.932 227.78C646.158 227.353 646.475 227.027 646.882 226.8C647.288 226.573 647.752 226.46 648.272 226.46C648.792 226.46 649.245 226.573 649.632 226.8C650.025 227.027 650.325 227.333 650.532 227.72C650.745 228.1 650.852 228.523 650.852 228.99ZM650.142 228.97C650.148 228.563 650.065 228.217 649.892 227.93C649.725 227.643 649.495 227.427 649.202 227.28C648.908 227.133 648.588 227.06 648.242 227.06C647.722 227.06 647.278 227.227 646.912 227.56C646.545 227.893 646.342 228.363 646.302 228.97H650.142ZM652.832 227.51C652.986 227.17 653.219 226.907 653.532 226.72C653.852 226.533 654.242 226.44 654.702 226.44V227.17H654.512C654.006 227.17 653.599 227.307 653.292 227.58C652.986 227.853 652.832 228.31 652.832 228.95V232H652.132V226.54H652.832V227.51ZM658.209 231.45C659.436 230.53 660.383 229.707 661.049 228.98C661.723 228.247 662.059 227.53 662.059 226.83C662.059 226.37 661.943 226.003 661.709 225.73C661.483 225.45 661.109 225.31 660.589 225.31C660.083 225.31 659.689 225.47 659.409 225.79C659.136 226.103 658.983 226.523 658.949 227.05H658.269C658.309 226.31 658.536 225.737 658.949 225.33C659.369 224.917 659.916 224.71 660.589 224.71C661.236 224.71 661.759 224.893 662.159 225.26C662.559 225.62 662.759 226.133 662.759 226.8C662.759 227.607 662.423 228.39 661.749 229.15C661.083 229.903 660.259 230.64 659.279 231.36H662.979V231.95H658.209V231.45ZM664.072 228.35C664.072 227.203 664.249 226.313 664.602 225.68C664.955 225.047 665.589 224.73 666.502 224.73C667.415 224.73 668.049 225.047 668.402 225.68C668.755 226.313 668.932 227.203 668.932 228.35C668.932 229.517 668.755 230.42 668.402 231.06C668.049 231.7 667.415 232.02 666.502 232.02C665.582 232.02 664.945 231.7 664.592 231.06C664.245 230.42 664.072 229.517 664.072 228.35ZM668.242 228.35C668.242 227.73 668.199 227.207 668.112 226.78C668.025 226.353 667.855 226.01 667.602 225.75C667.349 225.49 666.982 225.36 666.502 225.36C666.022 225.36 665.655 225.49 665.402 225.75C665.149 226.01 664.979 226.353 664.892 226.78C664.805 227.207 664.762 227.73 664.762 228.35C664.762 228.99 664.805 229.527 664.892 229.96C664.979 230.387 665.149 230.73 665.402 230.99C665.655 231.25 666.022 231.38 666.502 231.38C666.982 231.38 667.349 231.25 667.602 230.99C667.855 230.73 668.025 230.387 668.112 229.96C668.199 229.527 668.242 228.99 668.242 228.35ZM670.234 228.35C670.234 227.203 670.411 226.313 670.764 225.68C671.118 225.047 671.751 224.73 672.664 224.73C673.578 224.73 674.211 225.047 674.564 225.68C674.918 226.313 675.094 227.203 675.094 228.35C675.094 229.517 674.918 230.42 674.564 231.06C674.211 231.7 673.578 232.02 672.664 232.02C671.744 232.02 671.108 231.7 670.754 231.06C670.408 230.42 670.234 229.517 670.234 228.35ZM674.404 228.35C674.404 227.73 674.361 227.207 674.274 226.78C674.188 226.353 674.018 226.01 673.764 225.75C673.511 225.49 673.144 225.36 672.664 225.36C672.184 225.36 671.818 225.49 671.564 225.75C671.311 226.01 671.141 226.353 671.054 226.78C670.968 227.207 670.924 227.73 670.924 228.35C670.924 228.99 670.968 229.527 671.054 229.96C671.141 230.387 671.311 230.73 671.564 230.99C671.818 231.25 672.184 231.38 672.664 231.38C673.144 231.38 673.511 231.25 673.764 230.99C674.018 230.73 674.188 230.387 674.274 229.96C674.361 229.527 674.404 228.99 674.404 228.35ZM679.496 232L677.246 229.55V232H676.546V224.6H677.246V228.98L679.446 226.54H680.426L677.836 229.26L680.446 232H679.496Z" fill="#09100F"/>
</svg>
