<svg width="688" height="240" viewBox="0 0 688 240" fill="none" xmlns="http://www.w3.org/2000/svg">
<path d="M98.6781 55.832C98.6781 56.3653 98.5448 56.8667 98.2781 57.336C98.0221 57.8053 97.6381 58.2 97.1261 58.52C96.6248 58.84 96.0275 59.032 95.3341 59.096V60.392H94.2941V59.096C93.2915 59 92.4808 58.6853 91.8621 58.152C91.2435 57.6187 90.9341 56.9147 90.9341 56.04H92.8861C92.9181 56.456 93.0515 56.8027 93.2861 57.08C93.5208 57.3467 93.8568 57.5173 94.2941 57.592V54.072C93.5795 53.8907 92.9981 53.7093 92.5501 53.528C92.1021 53.336 91.7181 53.0373 91.3981 52.632C91.0888 52.2267 90.9341 51.672 90.9341 50.968C90.9341 50.0827 91.2435 49.352 91.8621 48.776C92.4808 48.1893 93.2915 47.848 94.2941 47.752V46.456H95.3341V47.752C96.2728 47.8373 97.0248 48.136 97.5901 48.648C98.1661 49.1493 98.4915 49.8427 98.5661 50.728H96.6141C96.5821 50.3973 96.4541 50.104 96.2301 49.848C96.0061 49.5813 95.7075 49.4 95.3341 49.304V52.76C96.0488 52.9307 96.6301 53.112 97.0781 53.304C97.5261 53.4853 97.9048 53.7787 98.2141 54.184C98.5235 54.5787 98.6781 55.128 98.6781 55.832ZM92.7901 50.872C92.7901 51.3093 92.9181 51.6507 93.1741 51.896C93.4408 52.1413 93.8141 52.3387 94.2941 52.488V49.256C93.8355 49.3093 93.4675 49.4747 93.1901 49.752C92.9235 50.0293 92.7901 50.4027 92.7901 50.872ZM95.3341 57.592C95.8035 57.5173 96.1715 57.3307 96.4381 57.032C96.7048 56.7227 96.8381 56.3547 96.8381 55.928C96.8381 55.5013 96.7048 55.1707 96.4381 54.936C96.1821 54.6907 95.8141 54.4933 95.3341 54.344V57.592ZM102.348 56.52C103.372 55.6347 104.178 54.9093 104.764 54.344C105.362 53.768 105.858 53.1707 106.252 52.552C106.647 51.9333 106.844 51.3147 106.844 50.696C106.844 50.056 106.69 49.5547 106.38 49.192C106.082 48.8293 105.607 48.648 104.956 48.648C104.327 48.648 103.836 48.8507 103.484 49.256C103.143 49.6507 102.962 50.184 102.94 50.856H101.18C101.212 49.64 101.575 48.712 102.268 48.072C102.972 47.4213 103.863 47.096 104.94 47.096C106.103 47.096 107.01 47.416 107.66 48.056C108.322 48.696 108.652 49.5493 108.652 50.616C108.652 51.384 108.455 52.1253 108.06 52.84C107.676 53.544 107.212 54.1787 106.668 54.744C106.135 55.2987 105.452 55.944 104.62 56.68L103.9 57.32H108.972V58.84H101.196V57.512L102.348 56.52ZM118.095 48.904H112.735V52.088C112.959 51.7893 113.289 51.5387 113.727 51.336C114.175 51.1333 114.649 51.032 115.151 51.032C116.047 51.032 116.772 51.224 117.327 51.608C117.892 51.992 118.292 52.4773 118.527 53.064C118.772 53.6507 118.895 54.2693 118.895 54.92C118.895 55.7093 118.74 56.4133 118.431 57.032C118.132 57.64 117.679 58.12 117.071 58.472C116.473 58.824 115.737 59 114.863 59C113.7 59 112.767 58.712 112.063 58.136C111.359 57.56 110.937 56.7973 110.799 55.848H112.575C112.692 56.3493 112.953 56.7493 113.359 57.048C113.764 57.336 114.271 57.48 114.879 57.48C115.636 57.48 116.201 57.2507 116.575 56.792C116.959 56.3333 117.151 55.7253 117.151 54.968C117.151 54.2 116.959 53.6133 116.575 53.208C116.191 52.792 115.625 52.584 114.879 52.584C114.356 52.584 113.913 52.7173 113.551 52.984C113.199 53.24 112.943 53.592 112.783 54.04H111.055V47.304H118.095V48.904ZM124.521 54.6L128.585 59H126.121L122.857 55.208V59H121.033V47.16H122.857V54.04L126.057 50.184H128.585L124.521 54.6Z" fill="#09100F"/>
<rect y="73" width="218.667" height="135" rx="6" fill="#FF5C4D"/>
<path d="M72.7633 231.45C73.9899 230.53 74.9366 229.707 75.6033 228.98C76.2766 228.247 76.6133 227.53 76.6133 226.83C76.6133 226.37 76.4966 226.003 76.2633 225.73C76.0366 225.45 75.6633 225.31 75.1433 225.31C74.6366 225.31 74.2433 225.47 73.9633 225.79C73.6899 226.103 73.5366 226.523 73.5033 227.05H72.8233C72.8633 226.31 73.0899 225.737 73.5033 225.33C73.9233 224.917 74.4699 224.71 75.1433 224.71C75.7899 224.71 76.3133 224.893 76.7133 225.26C77.1133 225.62 77.3133 226.133 77.3133 226.8C77.3133 227.607 76.9766 228.39 76.3033 229.15C75.6366 229.903 74.8133 230.64 73.8333 231.36H77.5333V231.95H72.7633V231.45ZM83.1459 225.43H79.4859V227.99C79.6526 227.757 79.8959 227.567 80.2159 227.42C80.5359 227.267 80.8826 227.19 81.2559 227.19C81.8026 227.19 82.2492 227.303 82.5959 227.53C82.9426 227.75 83.1926 228.04 83.3459 228.4C83.4992 228.753 83.5759 229.133 83.5759 229.54C83.5759 230.007 83.4859 230.43 83.3059 230.81C83.1326 231.183 82.8626 231.48 82.4959 231.7C82.1359 231.92 81.6859 232.03 81.1459 232.03C80.4592 232.03 79.9026 231.853 79.4759 231.5C79.0492 231.14 78.7892 230.657 78.6959 230.05H79.3859C79.4726 230.49 79.6726 230.83 79.9859 231.07C80.2992 231.31 80.6859 231.43 81.1459 231.43C81.7259 231.43 82.1626 231.26 82.4559 230.92C82.7559 230.573 82.9059 230.117 82.9059 229.55C82.9059 228.997 82.7559 228.567 82.4559 228.26C82.1559 227.947 81.7259 227.79 81.1659 227.79C80.7792 227.79 80.4392 227.88 80.1459 228.06C79.8526 228.24 79.6359 228.483 79.4959 228.79H78.8359V224.82H83.1459V225.43ZM85.8578 227.13V230.52C85.8578 230.853 85.9211 231.083 86.0478 231.21C86.1745 231.337 86.3978 231.4 86.7178 231.4H87.3578V232H86.6078C86.1145 232 85.7478 231.887 85.5078 231.66C85.2678 231.427 85.1478 231.047 85.1478 230.52V227.13H84.3878V226.54H85.1478V225.17H85.8578V226.54H87.3578V227.13H85.8578ZM91.1122 226.44C91.5256 226.44 91.8956 226.527 92.2222 226.7C92.5556 226.873 92.8156 227.14 93.0022 227.5C93.1956 227.853 93.2922 228.287 93.2922 228.8V232H92.6022V228.88C92.6022 228.287 92.4522 227.833 92.1522 227.52C91.8589 227.207 91.4556 227.05 90.9422 227.05C90.4156 227.05 89.9956 227.217 89.6822 227.55C89.3689 227.883 89.2122 228.373 89.2122 229.02V232H88.5122V224.6H89.2122V227.47C89.3856 227.143 89.6389 226.89 89.9722 226.71C90.3122 226.53 90.6922 226.44 91.1122 226.44ZM98.2745 227.74C98.4478 227.373 98.7212 227.07 99.0945 226.83C99.4745 226.583 99.9245 226.46 100.445 226.46C100.938 226.46 101.381 226.577 101.775 226.81C102.175 227.037 102.485 227.363 102.705 227.79C102.931 228.21 103.045 228.7 103.045 229.26C103.045 229.82 102.931 230.313 102.705 230.74C102.485 231.167 102.175 231.497 101.775 231.73C101.381 231.963 100.938 232.08 100.445 232.08C99.9312 232.08 99.4845 231.96 99.1045 231.72C98.7245 231.473 98.4478 231.167 98.2745 230.8V234.58H97.5845V226.54H98.2745V227.74ZM102.335 229.26C102.335 228.807 102.245 228.417 102.065 228.09C101.891 227.757 101.651 227.503 101.345 227.33C101.038 227.157 100.691 227.07 100.305 227.07C99.9312 227.07 99.5878 227.16 99.2745 227.34C98.9678 227.52 98.7245 227.777 98.5445 228.11C98.3645 228.443 98.2745 228.83 98.2745 229.27C98.2745 229.71 98.3645 230.097 98.5445 230.43C98.7245 230.763 98.9678 231.02 99.2745 231.2C99.5878 231.38 99.9312 231.47 100.305 231.47C100.691 231.47 101.038 231.383 101.345 231.21C101.651 231.03 101.891 230.773 102.065 230.44C102.245 230.1 102.335 229.707 102.335 229.26ZM109.273 228.99C109.273 229.23 109.266 229.413 109.253 229.54H104.723C104.743 229.953 104.843 230.307 105.023 230.6C105.203 230.893 105.439 231.117 105.733 231.27C106.026 231.417 106.346 231.49 106.693 231.49C107.146 231.49 107.526 231.38 107.833 231.16C108.146 230.94 108.353 230.643 108.453 230.27H109.193C109.059 230.803 108.773 231.24 108.333 231.58C107.899 231.913 107.353 232.08 106.693 232.08C106.179 232.08 105.719 231.967 105.313 231.74C104.906 231.507 104.586 231.18 104.353 230.76C104.126 230.333 104.013 229.837 104.013 229.27C104.013 228.703 104.126 228.207 104.353 227.78C104.579 227.353 104.896 227.027 105.303 226.8C105.709 226.573 106.173 226.46 106.693 226.46C107.213 226.46 107.666 226.573 108.053 226.8C108.446 227.027 108.746 227.333 108.953 227.72C109.166 228.1 109.273 228.523 109.273 228.99ZM108.563 228.97C108.569 228.563 108.486 228.217 108.313 227.93C108.146 227.643 107.916 227.427 107.623 227.28C107.329 227.133 107.009 227.06 106.663 227.06C106.143 227.06 105.699 227.227 105.333 227.56C104.966 227.893 104.763 228.363 104.723 228.97H108.563ZM111.253 227.51C111.407 227.17 111.64 226.907 111.953 226.72C112.273 226.533 112.663 226.44 113.123 226.44V227.17H112.933C112.427 227.17 112.02 227.307 111.713 227.58C111.407 227.853 111.253 228.31 111.253 228.95V232H110.553V226.54H111.253V227.51ZM113.856 229.27C113.856 228.703 113.97 228.21 114.196 227.79C114.423 227.363 114.736 227.037 115.136 226.81C115.536 226.577 115.993 226.46 116.506 226.46C117.18 226.46 117.733 226.627 118.166 226.96C118.606 227.293 118.89 227.747 119.016 228.32H118.266C118.173 227.927 117.97 227.62 117.656 227.4C117.35 227.173 116.966 227.06 116.506 227.06C116.14 227.06 115.81 227.143 115.516 227.31C115.223 227.477 114.99 227.727 114.816 228.06C114.65 228.387 114.566 228.79 114.566 229.27C114.566 229.75 114.65 230.157 114.816 230.49C114.99 230.823 115.223 231.073 115.516 231.24C115.81 231.407 116.14 231.49 116.506 231.49C116.966 231.49 117.35 231.38 117.656 231.16C117.97 230.933 118.173 230.62 118.266 230.22H119.016C118.89 230.78 118.606 231.23 118.166 231.57C117.726 231.91 117.173 232.08 116.506 232.08C115.993 232.08 115.536 231.967 115.136 231.74C114.736 231.507 114.423 231.18 114.196 230.76C113.97 230.333 113.856 229.837 113.856 229.27ZM125.249 228.99C125.249 229.23 125.242 229.413 125.229 229.54H120.699C120.719 229.953 120.819 230.307 120.999 230.6C121.179 230.893 121.416 231.117 121.709 231.27C122.002 231.417 122.322 231.49 122.669 231.49C123.122 231.49 123.502 231.38 123.809 231.16C124.122 230.94 124.329 230.643 124.429 230.27H125.169C125.036 230.803 124.749 231.24 124.309 231.58C123.876 231.913 123.329 232.08 122.669 232.08C122.156 232.08 121.696 231.967 121.289 231.74C120.882 231.507 120.562 231.18 120.329 230.76C120.102 230.333 119.989 229.837 119.989 229.27C119.989 228.703 120.102 228.207 120.329 227.78C120.556 227.353 120.872 227.027 121.279 226.8C121.686 226.573 122.149 226.46 122.669 226.46C123.189 226.46 123.642 226.573 124.029 226.8C124.422 227.027 124.722 227.333 124.929 227.72C125.142 228.1 125.249 228.523 125.249 228.99ZM124.539 228.97C124.546 228.563 124.462 228.217 124.289 227.93C124.122 227.643 123.892 227.427 123.599 227.28C123.306 227.133 122.986 227.06 122.639 227.06C122.119 227.06 121.676 227.227 121.309 227.56C120.942 227.893 120.739 228.363 120.699 228.97H124.539ZM129.09 226.44C129.743 226.44 130.276 226.643 130.69 227.05C131.103 227.45 131.31 228.033 131.31 228.8V232H130.62V228.88C130.62 228.287 130.47 227.833 130.17 227.52C129.876 227.207 129.473 227.05 128.96 227.05C128.433 227.05 128.013 227.217 127.7 227.55C127.386 227.883 127.23 228.373 127.23 229.02V232H126.53V226.54H127.23V227.47C127.403 227.137 127.653 226.883 127.98 226.71C128.306 226.53 128.676 226.44 129.09 226.44ZM133.768 227.13V230.52C133.768 230.853 133.831 231.083 133.958 231.21C134.085 231.337 134.308 231.4 134.628 231.4H135.268V232H134.518C134.025 232 133.658 231.887 133.418 231.66C133.178 231.427 133.058 231.047 133.058 230.52V227.13H132.298V226.54H133.058V225.17H133.768V226.54H135.268V227.13H133.768ZM136.772 225.51C136.632 225.51 136.512 225.46 136.412 225.36C136.312 225.26 136.262 225.137 136.262 224.99C136.262 224.843 136.312 224.723 136.412 224.63C136.512 224.53 136.632 224.48 136.772 224.48C136.912 224.48 137.032 224.53 137.132 224.63C137.232 224.723 137.282 224.843 137.282 224.99C137.282 225.137 137.232 225.26 137.132 225.36C137.032 225.46 136.912 225.51 136.772 225.51ZM137.122 226.54V232H136.422V226.54H137.122ZM139.408 224.6V232H138.708V224.6H139.408ZM145.933 228.99C145.933 229.23 145.926 229.413 145.913 229.54H141.383C141.403 229.953 141.503 230.307 141.683 230.6C141.863 230.893 142.099 231.117 142.393 231.27C142.686 231.417 143.006 231.49 143.353 231.49C143.806 231.49 144.186 231.38 144.493 231.16C144.806 230.94 145.013 230.643 145.113 230.27H145.853C145.719 230.803 145.433 231.24 144.993 231.58C144.559 231.913 144.013 232.08 143.353 232.08C142.839 232.08 142.379 231.967 141.973 231.74C141.566 231.507 141.246 231.18 141.013 230.76C140.786 230.333 140.673 229.837 140.673 229.27C140.673 228.703 140.786 228.207 141.013 227.78C141.239 227.353 141.556 227.027 141.963 226.8C142.369 226.573 142.833 226.46 143.353 226.46C143.873 226.46 144.326 226.573 144.713 226.8C145.106 227.027 145.406 227.333 145.613 227.72C145.826 228.1 145.933 228.523 145.933 228.99ZM145.223 228.97C145.229 228.563 145.146 228.217 144.973 227.93C144.806 227.643 144.576 227.427 144.283 227.28C143.989 227.133 143.669 227.06 143.323 227.06C142.803 227.06 142.359 227.227 141.993 227.56C141.626 227.893 141.423 228.363 141.383 228.97H145.223Z" fill="#09100F"/>
<path d="M326.235 85.832C326.235 86.3653 326.102 86.8667 325.835 87.336C325.579 87.8053 325.195 88.2 324.683 88.52C324.182 88.84 323.585 89.032 322.891 89.096V90.392H321.851V89.096C320.849 89 320.038 88.6853 319.419 88.152C318.801 87.6187 318.491 86.9147 318.491 86.04H320.443C320.475 86.456 320.609 86.8027 320.843 87.08C321.078 87.3467 321.414 87.5173 321.851 87.592V84.072C321.137 83.8907 320.555 83.7093 320.107 83.528C319.659 83.336 319.275 83.0373 318.955 82.632C318.646 82.2267 318.491 81.672 318.491 80.968C318.491 80.0827 318.801 79.352 319.419 78.776C320.038 78.1893 320.849 77.848 321.851 77.752V76.456H322.891V77.752C323.83 77.8373 324.582 78.136 325.147 78.648C325.723 79.1493 326.049 79.8427 326.123 80.728H324.171C324.139 80.3973 324.011 80.104 323.787 79.848C323.563 79.5813 323.265 79.4 322.891 79.304V82.76C323.606 82.9307 324.187 83.112 324.635 83.304C325.083 83.4853 325.462 83.7787 325.771 84.184C326.081 84.5787 326.235 85.128 326.235 85.832ZM320.347 80.872C320.347 81.3093 320.475 81.6507 320.731 81.896C320.998 82.1413 321.371 82.3387 321.851 82.488V79.256C321.393 79.3093 321.025 79.4747 320.747 79.752C320.481 80.0293 320.347 80.4027 320.347 80.872ZM322.891 87.592C323.361 87.5173 323.729 87.3307 323.995 87.032C324.262 86.7227 324.395 86.3547 324.395 85.928C324.395 85.5013 324.262 85.1707 323.995 84.936C323.739 84.6907 323.371 84.4933 322.891 84.344V87.592ZM328.674 86.568V85.192L334.05 77.48H336.258V84.984H337.746V86.568H336.258V89H334.466V86.568H328.674ZM334.546 79.336L330.77 84.984H334.546V79.336ZM340.265 86.52C341.289 85.6347 342.094 84.9093 342.681 84.344C343.278 83.768 343.774 83.1707 344.169 82.552C344.564 81.9333 344.761 81.3147 344.761 80.696C344.761 80.056 344.606 79.5547 344.297 79.192C343.998 78.8293 343.524 78.648 342.873 78.648C342.244 78.648 341.753 78.8507 341.401 79.256C341.06 79.6507 340.878 80.184 340.857 80.856H339.097C339.129 79.64 339.492 78.712 340.185 78.072C340.889 77.4213 341.78 77.096 342.857 77.096C344.02 77.096 344.926 77.416 345.577 78.056C346.238 78.696 346.569 79.5493 346.569 80.616C346.569 81.384 346.372 82.1253 345.977 82.84C345.593 83.544 345.129 84.1787 344.585 84.744C344.052 85.2987 343.369 85.944 342.537 86.68L341.817 87.32H346.889V88.84H339.113V87.512L340.265 86.52ZM349.467 89.112C349.137 89.112 348.859 89 348.635 88.776C348.411 88.552 348.299 88.2747 348.299 87.944C348.299 87.6133 348.411 87.336 348.635 87.112C348.859 86.888 349.137 86.776 349.467 86.776C349.787 86.776 350.059 86.888 350.283 87.112C350.507 87.336 350.619 87.6133 350.619 87.944C350.619 88.2747 350.507 88.552 350.283 88.776C350.059 89 349.787 89.112 349.467 89.112ZM359.871 78.904H354.511V82.088C354.735 81.7893 355.065 81.5387 355.503 81.336C355.951 81.1333 356.425 81.032 356.927 81.032C357.823 81.032 358.548 81.224 359.103 81.608C359.668 81.992 360.068 82.4773 360.303 83.064C360.548 83.6507 360.671 84.2693 360.671 84.92C360.671 85.7093 360.516 86.4133 360.207 87.032C359.908 87.64 359.455 88.12 358.847 88.472C358.249 88.824 357.513 89 356.639 89C355.476 89 354.543 88.712 353.839 88.136C353.135 87.56 352.713 86.7973 352.575 85.848H354.351C354.468 86.3493 354.729 86.7493 355.135 87.048C355.54 87.336 356.047 87.48 356.655 87.48C357.412 87.48 357.977 87.2507 358.351 86.792C358.735 86.3333 358.927 85.7253 358.927 84.968C358.927 84.2 358.735 83.6133 358.351 83.208C357.967 82.792 357.401 82.584 356.655 82.584C356.132 82.584 355.689 82.7173 355.327 82.984C354.975 83.24 354.719 83.592 354.559 84.04H352.831V77.304H359.871V78.904ZM366.297 84.6L370.361 89H367.897L364.633 85.208V89H362.809V77.16H364.633V84.04L367.833 80.184H370.361L366.297 84.6Z" fill="#09100F"/>
<rect x="234.667" y="103" width="218.667" height="105" rx="6" fill="#65C9BD"/>
<path d="M311.87 225.43H308.21V227.99C308.377 227.757 308.62 227.567 308.94 227.42C309.26 227.267 309.607 227.19 309.98 227.19C310.527 227.19 310.973 227.303 311.32 227.53C311.667 227.75 311.917 228.04 312.07 228.4C312.223 228.753 312.3 229.133 312.3 229.54C312.3 230.007 312.21 230.43 312.03 230.81C311.857 231.183 311.587 231.48 311.22 231.7C310.86 231.92 310.41 232.03 309.87 232.03C309.183 232.03 308.627 231.853 308.2 231.5C307.773 231.14 307.513 230.657 307.42 230.05H308.11C308.197 230.49 308.397 230.83 308.71 231.07C309.023 231.31 309.41 231.43 309.87 231.43C310.45 231.43 310.887 231.26 311.18 230.92C311.48 230.573 311.63 230.117 311.63 229.55C311.63 228.997 311.48 228.567 311.18 228.26C310.88 227.947 310.45 227.79 309.89 227.79C309.503 227.79 309.163 227.88 308.87 228.06C308.577 228.24 308.36 228.483 308.22 228.79H307.56V224.82H311.87V225.43ZM313.522 228.35C313.522 227.203 313.699 226.313 314.052 225.68C314.405 225.047 315.039 224.73 315.952 224.73C316.865 224.73 317.499 225.047 317.852 225.68C318.205 226.313 318.382 227.203 318.382 228.35C318.382 229.517 318.205 230.42 317.852 231.06C317.499 231.7 316.865 232.02 315.952 232.02C315.032 232.02 314.395 231.7 314.042 231.06C313.695 230.42 313.522 229.517 313.522 228.35ZM317.692 228.35C317.692 227.73 317.649 227.207 317.562 226.78C317.475 226.353 317.305 226.01 317.052 225.75C316.799 225.49 316.432 225.36 315.952 225.36C315.472 225.36 315.105 225.49 314.852 225.75C314.599 226.01 314.429 226.353 314.342 226.78C314.255 227.207 314.212 227.73 314.212 228.35C314.212 228.99 314.255 229.527 314.342 229.96C314.429 230.387 314.599 230.73 314.852 230.99C315.105 231.25 315.472 231.38 315.952 231.38C316.432 231.38 316.799 231.25 317.052 230.99C317.305 230.73 317.475 230.387 317.562 229.96C317.649 229.527 317.692 228.99 317.692 228.35ZM320.744 227.13V230.52C320.744 230.853 320.807 231.083 320.934 231.21C321.061 231.337 321.284 231.4 321.604 231.4H322.244V232H321.494C321.001 232 320.634 231.887 320.394 231.66C320.154 231.427 320.034 231.047 320.034 230.52V227.13H319.274V226.54H320.034V225.17H320.744V226.54H322.244V227.13H320.744ZM325.998 226.44C326.412 226.44 326.782 226.527 327.108 226.7C327.442 226.873 327.702 227.14 327.888 227.5C328.082 227.853 328.178 228.287 328.178 228.8V232H327.488V228.88C327.488 228.287 327.338 227.833 327.038 227.52C326.745 227.207 326.342 227.05 325.828 227.05C325.302 227.05 324.882 227.217 324.568 227.55C324.255 227.883 324.098 228.373 324.098 229.02V232H323.398V224.6H324.098V227.47C324.272 227.143 324.525 226.89 324.858 226.71C325.198 226.53 325.578 226.44 325.998 226.44ZM333.161 227.74C333.334 227.373 333.607 227.07 333.981 226.83C334.361 226.583 334.811 226.46 335.331 226.46C335.824 226.46 336.267 226.577 336.661 226.81C337.061 227.037 337.371 227.363 337.591 227.79C337.817 228.21 337.931 228.7 337.931 229.26C337.931 229.82 337.817 230.313 337.591 230.74C337.371 231.167 337.061 231.497 336.661 231.73C336.267 231.963 335.824 232.08 335.331 232.08C334.817 232.08 334.371 231.96 333.991 231.72C333.611 231.473 333.334 231.167 333.161 230.8V234.58H332.471V226.54H333.161V227.74ZM337.221 229.26C337.221 228.807 337.131 228.417 336.951 228.09C336.777 227.757 336.537 227.503 336.231 227.33C335.924 227.157 335.577 227.07 335.191 227.07C334.817 227.07 334.474 227.16 334.161 227.34C333.854 227.52 333.611 227.777 333.431 228.11C333.251 228.443 333.161 228.83 333.161 229.27C333.161 229.71 333.251 230.097 333.431 230.43C333.611 230.763 333.854 231.02 334.161 231.2C334.474 231.38 334.817 231.47 335.191 231.47C335.577 231.47 335.924 231.383 336.231 231.21C336.537 231.03 336.777 230.773 336.951 230.44C337.131 230.1 337.221 229.707 337.221 229.26ZM344.159 228.99C344.159 229.23 344.152 229.413 344.139 229.54H339.609C339.629 229.953 339.729 230.307 339.909 230.6C340.089 230.893 340.325 231.117 340.619 231.27C340.912 231.417 341.232 231.49 341.579 231.49C342.032 231.49 342.412 231.38 342.719 231.16C343.032 230.94 343.239 230.643 343.339 230.27H344.079C343.945 230.803 343.659 231.24 343.219 231.58C342.785 231.913 342.239 232.08 341.579 232.08C341.065 232.08 340.605 231.967 340.199 231.74C339.792 231.507 339.472 231.18 339.239 230.76C339.012 230.333 338.899 229.837 338.899 229.27C338.899 228.703 339.012 228.207 339.239 227.78C339.465 227.353 339.782 227.027 340.189 226.8C340.595 226.573 341.059 226.46 341.579 226.46C342.099 226.46 342.552 226.573 342.939 226.8C343.332 227.027 343.632 227.333 343.839 227.72C344.052 228.1 344.159 228.523 344.159 228.99ZM343.449 228.97C343.455 228.563 343.372 228.217 343.199 227.93C343.032 227.643 342.802 227.427 342.509 227.28C342.215 227.133 341.895 227.06 341.549 227.06C341.029 227.06 340.585 227.227 340.219 227.56C339.852 227.893 339.649 228.363 339.609 228.97H343.449ZM346.139 227.51C346.293 227.17 346.526 226.907 346.839 226.72C347.159 226.533 347.549 226.44 348.009 226.44V227.17H347.819C347.313 227.17 346.906 227.307 346.599 227.58C346.293 227.853 346.139 228.31 346.139 228.95V232H345.439V226.54H346.139V227.51ZM348.743 229.27C348.743 228.703 348.856 228.21 349.083 227.79C349.309 227.363 349.623 227.037 350.023 226.81C350.423 226.577 350.879 226.46 351.393 226.46C352.066 226.46 352.619 226.627 353.053 226.96C353.493 227.293 353.776 227.747 353.903 228.32H353.153C353.059 227.927 352.856 227.62 352.543 227.4C352.236 227.173 351.853 227.06 351.393 227.06C351.026 227.06 350.696 227.143 350.403 227.31C350.109 227.477 349.876 227.727 349.703 228.06C349.536 228.387 349.453 228.79 349.453 229.27C349.453 229.75 349.536 230.157 349.703 230.49C349.876 230.823 350.109 231.073 350.403 231.24C350.696 231.407 351.026 231.49 351.393 231.49C351.853 231.49 352.236 231.38 352.543 231.16C352.856 230.933 353.059 230.62 353.153 230.22H353.903C353.776 230.78 353.493 231.23 353.053 231.57C352.613 231.91 352.059 232.08 351.393 232.08C350.879 232.08 350.423 231.967 350.023 231.74C349.623 231.507 349.309 231.18 349.083 230.76C348.856 230.333 348.743 229.837 348.743 229.27ZM360.135 228.99C360.135 229.23 360.129 229.413 360.115 229.54H355.585C355.605 229.953 355.705 230.307 355.885 230.6C356.065 230.893 356.302 231.117 356.595 231.27C356.889 231.417 357.209 231.49 357.555 231.49C358.009 231.49 358.389 231.38 358.695 231.16C359.009 230.94 359.215 230.643 359.315 230.27H360.055C359.922 230.803 359.635 231.24 359.195 231.58C358.762 231.913 358.215 232.08 357.555 232.08C357.042 232.08 356.582 231.967 356.175 231.74C355.769 231.507 355.449 231.18 355.215 230.76C354.989 230.333 354.875 229.837 354.875 229.27C354.875 228.703 354.989 228.207 355.215 227.78C355.442 227.353 355.759 227.027 356.165 226.8C356.572 226.573 357.035 226.46 357.555 226.46C358.075 226.46 358.529 226.573 358.915 226.8C359.309 227.027 359.609 227.333 359.815 227.72C360.029 228.1 360.135 228.523 360.135 228.99ZM359.425 228.97C359.432 228.563 359.349 228.217 359.175 227.93C359.009 227.643 358.779 227.427 358.485 227.28C358.192 227.133 357.872 227.06 357.525 227.06C357.005 227.06 356.562 227.227 356.195 227.56C355.829 227.893 355.625 228.363 355.585 228.97H359.425ZM363.976 226.44C364.629 226.44 365.163 226.643 365.576 227.05C365.989 227.45 366.196 228.033 366.196 228.8V232H365.506V228.88C365.506 228.287 365.356 227.833 365.056 227.52C364.763 227.207 364.359 227.05 363.846 227.05C363.319 227.05 362.899 227.217 362.586 227.55C362.273 227.883 362.116 228.373 362.116 229.02V232H361.416V226.54H362.116V227.47C362.289 227.137 362.539 226.883 362.866 226.71C363.193 226.53 363.563 226.44 363.976 226.44ZM368.654 227.13V230.52C368.654 230.853 368.718 231.083 368.844 231.21C368.971 231.337 369.194 231.4 369.514 231.4H370.154V232H369.404C368.911 232 368.544 231.887 368.304 231.66C368.064 231.427 367.944 231.047 367.944 230.52V227.13H367.184V226.54H367.944V225.17H368.654V226.54H370.154V227.13H368.654ZM371.659 225.51C371.519 225.51 371.399 225.46 371.299 225.36C371.199 225.26 371.149 225.137 371.149 224.99C371.149 224.843 371.199 224.723 371.299 224.63C371.399 224.53 371.519 224.48 371.659 224.48C371.799 224.48 371.919 224.53 372.019 224.63C372.119 224.723 372.169 224.843 372.169 224.99C372.169 225.137 372.119 225.26 372.019 225.36C371.919 225.46 371.799 225.51 371.659 225.51ZM372.009 226.54V232H371.309V226.54H372.009ZM374.294 224.6V232H373.594V224.6H374.294ZM380.819 228.99C380.819 229.23 380.812 229.413 380.799 229.54H376.269C376.289 229.953 376.389 230.307 376.569 230.6C376.749 230.893 376.986 231.117 377.279 231.27C377.572 231.417 377.892 231.49 378.239 231.49C378.692 231.49 379.072 231.38 379.379 231.16C379.692 230.94 379.899 230.643 379.999 230.27H380.739C380.606 230.803 380.319 231.24 379.879 231.58C379.446 231.913 378.899 232.08 378.239 232.08C377.726 232.08 377.266 231.967 376.859 231.74C376.452 231.507 376.132 231.18 375.899 230.76C375.672 230.333 375.559 229.837 375.559 229.27C375.559 228.703 375.672 228.207 375.899 227.78C376.126 227.353 376.442 227.027 376.849 226.8C377.256 226.573 377.719 226.46 378.239 226.46C378.759 226.46 379.212 226.573 379.599 226.8C379.992 227.027 380.292 227.333 380.499 227.72C380.712 228.1 380.819 228.523 380.819 228.99ZM380.109 228.97C380.116 228.563 380.032 228.217 379.859 227.93C379.692 227.643 379.462 227.427 379.169 227.28C378.876 227.133 378.556 227.06 378.209 227.06C377.689 227.06 377.246 227.227 376.879 227.56C376.512 227.893 376.309 228.363 376.269 228.97H380.109Z" fill="#09100F"/>
<path d="M562.887 122.832C562.887 123.365 562.753 123.867 562.487 124.336C562.231 124.805 561.847 125.2 561.335 125.52C560.833 125.84 560.236 126.032 559.543 126.096V127.392H558.503V126.096C557.5 126 556.689 125.685 556.071 125.152C555.452 124.619 555.143 123.915 555.143 123.04H557.095C557.127 123.456 557.26 123.803 557.495 124.08C557.729 124.347 558.065 124.517 558.503 124.592V121.072C557.788 120.891 557.207 120.709 556.759 120.528C556.311 120.336 555.927 120.037 555.607 119.632C555.297 119.227 555.143 118.672 555.143 117.968C555.143 117.083 555.452 116.352 556.071 115.776C556.689 115.189 557.5 114.848 558.503 114.752V113.456H559.543V114.752C560.481 114.837 561.233 115.136 561.799 115.648C562.375 116.149 562.7 116.843 562.775 117.728H560.823C560.791 117.397 560.663 117.104 560.439 116.848C560.215 116.581 559.916 116.4 559.543 116.304V119.76C560.257 119.931 560.839 120.112 561.287 120.304C561.735 120.485 562.113 120.779 562.423 121.184C562.732 121.579 562.887 122.128 562.887 122.832ZM556.999 117.872C556.999 118.309 557.127 118.651 557.383 118.896C557.649 119.141 558.023 119.339 558.503 119.488V116.256C558.044 116.309 557.676 116.475 557.399 116.752C557.132 117.029 556.999 117.403 556.999 117.872ZM559.543 124.592C560.012 124.517 560.38 124.331 560.647 124.032C560.913 123.723 561.047 123.355 561.047 122.928C561.047 122.501 560.913 122.171 560.647 121.936C560.391 121.691 560.023 121.493 559.543 121.344V124.592ZM566.557 123.52C567.581 122.635 568.386 121.909 568.973 121.344C569.57 120.768 570.066 120.171 570.461 119.552C570.856 118.933 571.053 118.315 571.053 117.696C571.053 117.056 570.898 116.555 570.589 116.192C570.29 115.829 569.816 115.648 569.165 115.648C568.536 115.648 568.045 115.851 567.693 116.256C567.352 116.651 567.17 117.184 567.149 117.856H565.389C565.421 116.64 565.784 115.712 566.477 115.072C567.181 114.421 568.072 114.096 569.149 114.096C570.312 114.096 571.218 114.416 571.869 115.056C572.53 115.696 572.861 116.549 572.861 117.616C572.861 118.384 572.664 119.125 572.269 119.84C571.885 120.544 571.421 121.179 570.877 121.744C570.344 122.299 569.661 122.944 568.829 123.68L568.109 124.32H573.181V125.84H565.405V124.512L566.557 123.52ZM582.303 115.904H576.943V119.088C577.167 118.789 577.498 118.539 577.935 118.336C578.383 118.133 578.858 118.032 579.359 118.032C580.255 118.032 580.981 118.224 581.535 118.608C582.101 118.992 582.501 119.477 582.735 120.064C582.981 120.651 583.103 121.269 583.103 121.92C583.103 122.709 582.949 123.413 582.639 124.032C582.341 124.64 581.887 125.12 581.279 125.472C580.682 125.824 579.946 126 579.071 126C577.909 126 576.975 125.712 576.271 125.136C575.567 124.56 575.146 123.797 575.007 122.848H576.783C576.901 123.349 577.162 123.749 577.567 124.048C577.973 124.336 578.479 124.48 579.087 124.48C579.845 124.48 580.41 124.251 580.783 123.792C581.167 123.333 581.359 122.725 581.359 121.968C581.359 121.2 581.167 120.613 580.783 120.208C580.399 119.792 579.834 119.584 579.087 119.584C578.565 119.584 578.122 119.717 577.759 119.984C577.407 120.24 577.151 120.592 576.991 121.04H575.263V114.304H582.303V115.904ZM585.002 120.016C585.002 118.171 585.311 116.731 585.93 115.696C586.559 114.651 587.637 114.128 589.162 114.128C590.687 114.128 591.759 114.651 592.378 115.696C593.007 116.731 593.322 118.171 593.322 120.016C593.322 121.883 593.007 123.344 592.378 124.4C591.759 125.445 590.687 125.968 589.162 125.968C587.637 125.968 586.559 125.445 585.93 124.4C585.311 123.344 585.002 121.883 585.002 120.016ZM591.53 120.016C591.53 119.152 591.471 118.421 591.354 117.824C591.247 117.227 591.023 116.741 590.682 116.368C590.341 115.984 589.834 115.792 589.162 115.792C588.49 115.792 587.983 115.984 587.642 116.368C587.301 116.741 587.071 117.227 586.954 117.824C586.847 118.421 586.794 119.152 586.794 120.016C586.794 120.912 586.847 121.664 586.954 122.272C587.061 122.88 587.285 123.371 587.626 123.744C587.978 124.117 588.49 124.304 589.162 124.304C589.834 124.304 590.341 124.117 590.682 123.744C591.034 123.371 591.263 122.88 591.37 122.272C591.477 121.664 591.53 120.912 591.53 120.016ZM598.98 121.6L603.044 126H600.58L597.316 122.208V126H595.492V114.16H597.316V121.04L600.516 117.184H603.044L598.98 121.6Z" fill="#09100F"/>
<rect x="469.333" y="140" width="218.667" height="68" rx="6" fill="#09100F"/>
<path d="M546.722 225.38L543.932 232H543.222L546.042 225.44H542.042V224.84H546.722V225.38ZM552.284 225.43H548.624V227.99C548.791 227.757 549.034 227.567 549.354 227.42C549.674 227.267 550.021 227.19 550.394 227.19C550.941 227.19 551.387 227.303 551.734 227.53C552.081 227.75 552.331 228.04 552.484 228.4C552.637 228.753 552.714 229.133 552.714 229.54C552.714 230.007 552.624 230.43 552.444 230.81C552.271 231.183 552.001 231.48 551.634 231.7C551.274 231.92 550.824 232.03 550.284 232.03C549.597 232.03 549.041 231.853 548.614 231.5C548.187 231.14 547.927 230.657 547.834 230.05H548.524C548.611 230.49 548.811 230.83 549.124 231.07C549.437 231.31 549.824 231.43 550.284 231.43C550.864 231.43 551.301 231.26 551.594 230.92C551.894 230.573 552.044 230.117 552.044 229.55C552.044 228.997 551.894 228.567 551.594 228.26C551.294 227.947 550.864 227.79 550.304 227.79C549.917 227.79 549.577 227.88 549.284 228.06C548.991 228.24 548.774 228.483 548.634 228.79H547.974V224.82H552.284V225.43ZM554.996 227.13V230.52C554.996 230.853 555.059 231.083 555.186 231.21C555.313 231.337 555.536 231.4 555.856 231.4H556.496V232H555.746C555.253 232 554.886 231.887 554.646 231.66C554.406 231.427 554.286 231.047 554.286 230.52V227.13H553.526V226.54H554.286V225.17H554.996V226.54H556.496V227.13H554.996ZM560.25 226.44C560.664 226.44 561.034 226.527 561.36 226.7C561.694 226.873 561.954 227.14 562.14 227.5C562.334 227.853 562.43 228.287 562.43 228.8V232H561.74V228.88C561.74 228.287 561.59 227.833 561.29 227.52C560.997 227.207 560.594 227.05 560.08 227.05C559.554 227.05 559.134 227.217 558.82 227.55C558.507 227.883 558.35 228.373 558.35 229.02V232H557.65V224.6H558.35V227.47C558.524 227.143 558.777 226.89 559.11 226.71C559.45 226.53 559.83 226.44 560.25 226.44ZM567.413 227.74C567.586 227.373 567.859 227.07 568.233 226.83C568.613 226.583 569.063 226.46 569.583 226.46C570.076 226.46 570.519 226.577 570.913 226.81C571.313 227.037 571.623 227.363 571.843 227.79C572.069 228.21 572.183 228.7 572.183 229.26C572.183 229.82 572.069 230.313 571.843 230.74C571.623 231.167 571.313 231.497 570.913 231.73C570.519 231.963 570.076 232.08 569.583 232.08C569.069 232.08 568.623 231.96 568.243 231.72C567.863 231.473 567.586 231.167 567.413 230.8V234.58H566.723V226.54H567.413V227.74ZM571.473 229.26C571.473 228.807 571.383 228.417 571.203 228.09C571.029 227.757 570.789 227.503 570.483 227.33C570.176 227.157 569.829 227.07 569.443 227.07C569.069 227.07 568.726 227.16 568.413 227.34C568.106 227.52 567.863 227.777 567.683 228.11C567.503 228.443 567.413 228.83 567.413 229.27C567.413 229.71 567.503 230.097 567.683 230.43C567.863 230.763 568.106 231.02 568.413 231.2C568.726 231.38 569.069 231.47 569.443 231.47C569.829 231.47 570.176 231.383 570.483 231.21C570.789 231.03 571.029 230.773 571.203 230.44C571.383 230.1 571.473 229.707 571.473 229.26ZM578.411 228.99C578.411 229.23 578.404 229.413 578.391 229.54H573.861C573.881 229.953 573.981 230.307 574.161 230.6C574.341 230.893 574.577 231.117 574.871 231.27C575.164 231.417 575.484 231.49 575.831 231.49C576.284 231.49 576.664 231.38 576.971 231.16C577.284 230.94 577.491 230.643 577.591 230.27H578.331C578.197 230.803 577.911 231.24 577.471 231.58C577.037 231.913 576.491 232.08 575.831 232.08C575.317 232.08 574.857 231.967 574.451 231.74C574.044 231.507 573.724 231.18 573.491 230.76C573.264 230.333 573.151 229.837 573.151 229.27C573.151 228.703 573.264 228.207 573.491 227.78C573.717 227.353 574.034 227.027 574.441 226.8C574.847 226.573 575.311 226.46 575.831 226.46C576.351 226.46 576.804 226.573 577.191 226.8C577.584 227.027 577.884 227.333 578.091 227.72C578.304 228.1 578.411 228.523 578.411 228.99ZM577.701 228.97C577.707 228.563 577.624 228.217 577.451 227.93C577.284 227.643 577.054 227.427 576.761 227.28C576.467 227.133 576.147 227.06 575.801 227.06C575.281 227.06 574.837 227.227 574.471 227.56C574.104 227.893 573.901 228.363 573.861 228.97H577.701ZM580.391 227.51C580.545 227.17 580.778 226.907 581.091 226.72C581.411 226.533 581.801 226.44 582.261 226.44V227.17H582.071C581.565 227.17 581.158 227.307 580.851 227.58C580.545 227.853 580.391 228.31 580.391 228.95V232H579.691V226.54H580.391V227.51ZM582.994 229.27C582.994 228.703 583.108 228.21 583.334 227.79C583.561 227.363 583.874 227.037 584.274 226.81C584.674 226.577 585.131 226.46 585.644 226.46C586.318 226.46 586.871 226.627 587.304 226.96C587.744 227.293 588.028 227.747 588.154 228.32H587.404C587.311 227.927 587.108 227.62 586.794 227.4C586.488 227.173 586.104 227.06 585.644 227.06C585.278 227.06 584.948 227.143 584.654 227.31C584.361 227.477 584.128 227.727 583.954 228.06C583.788 228.387 583.704 228.79 583.704 229.27C583.704 229.75 583.788 230.157 583.954 230.49C584.128 230.823 584.361 231.073 584.654 231.24C584.948 231.407 585.278 231.49 585.644 231.49C586.104 231.49 586.488 231.38 586.794 231.16C587.108 230.933 587.311 230.62 587.404 230.22H588.154C588.028 230.78 587.744 231.23 587.304 231.57C586.864 231.91 586.311 232.08 585.644 232.08C585.131 232.08 584.674 231.967 584.274 231.74C583.874 231.507 583.561 231.18 583.334 230.76C583.108 230.333 582.994 229.837 582.994 229.27ZM594.387 228.99C594.387 229.23 594.381 229.413 594.367 229.54H589.837C589.857 229.953 589.957 230.307 590.137 230.6C590.317 230.893 590.554 231.117 590.847 231.27C591.141 231.417 591.461 231.49 591.807 231.49C592.261 231.49 592.641 231.38 592.947 231.16C593.261 230.94 593.467 230.643 593.567 230.27H594.307C594.174 230.803 593.887 231.24 593.447 231.58C593.014 231.913 592.467 232.08 591.807 232.08C591.294 232.08 590.834 231.967 590.427 231.74C590.021 231.507 589.701 231.18 589.467 230.76C589.241 230.333 589.127 229.837 589.127 229.27C589.127 228.703 589.241 228.207 589.467 227.78C589.694 227.353 590.011 227.027 590.417 226.8C590.824 226.573 591.287 226.46 591.807 226.46C592.327 226.46 592.781 226.573 593.167 226.8C593.561 227.027 593.861 227.333 594.067 227.72C594.281 228.1 594.387 228.523 594.387 228.99ZM593.677 228.97C593.684 228.563 593.601 228.217 593.427 227.93C593.261 227.643 593.031 227.427 592.737 227.28C592.444 227.133 592.124 227.06 591.777 227.06C591.257 227.06 590.814 227.227 590.447 227.56C590.081 227.893 589.877 228.363 589.837 228.97H593.677ZM598.228 226.44C598.881 226.44 599.415 226.643 599.828 227.05C600.241 227.45 600.448 228.033 600.448 228.8V232H599.758V228.88C599.758 228.287 599.608 227.833 599.308 227.52C599.015 227.207 598.611 227.05 598.098 227.05C597.571 227.05 597.151 227.217 596.838 227.55C596.525 227.883 596.368 228.373 596.368 229.02V232H595.668V226.54H596.368V227.47C596.541 227.137 596.791 226.883 597.118 226.71C597.445 226.53 597.815 226.44 598.228 226.44ZM602.906 227.13V230.52C602.906 230.853 602.969 231.083 603.096 231.21C603.223 231.337 603.446 231.4 603.766 231.4H604.406V232H603.656C603.163 232 602.796 231.887 602.556 231.66C602.316 231.427 602.196 231.047 602.196 230.52V227.13H601.436V226.54H602.196V225.17H602.906V226.54H604.406V227.13H602.906ZM605.911 225.51C605.771 225.51 605.651 225.46 605.551 225.36C605.451 225.26 605.401 225.137 605.401 224.99C605.401 224.843 605.451 224.723 605.551 224.63C605.651 224.53 605.771 224.48 605.911 224.48C606.051 224.48 606.171 224.53 606.271 224.63C606.371 224.723 606.421 224.843 606.421 224.99C606.421 225.137 606.371 225.26 606.271 225.36C606.171 225.46 606.051 225.51 605.911 225.51ZM606.261 226.54V232H605.561V226.54H606.261ZM608.546 224.6V232H607.846V224.6H608.546ZM615.071 228.99C615.071 229.23 615.064 229.413 615.051 229.54H610.521C610.541 229.953 610.641 230.307 610.821 230.6C611.001 230.893 611.238 231.117 611.531 231.27C611.824 231.417 612.144 231.49 612.491 231.49C612.944 231.49 613.324 231.38 613.631 231.16C613.944 230.94 614.151 230.643 614.251 230.27H614.991C614.858 230.803 614.571 231.24 614.131 231.58C613.698 231.913 613.151 232.08 612.491 232.08C611.978 232.08 611.518 231.967 611.111 231.74C610.704 231.507 610.384 231.18 610.151 230.76C609.924 230.333 609.811 229.837 609.811 229.27C609.811 228.703 609.924 228.207 610.151 227.78C610.378 227.353 610.694 227.027 611.101 226.8C611.508 226.573 611.971 226.46 612.491 226.46C613.011 226.46 613.464 226.573 613.851 226.8C614.244 227.027 614.544 227.333 614.751 227.72C614.964 228.1 615.071 228.523 615.071 228.99ZM614.361 228.97C614.368 228.563 614.284 228.217 614.111 227.93C613.944 227.643 613.714 227.427 613.421 227.28C613.128 227.133 612.808 227.06 612.461 227.06C611.941 227.06 611.498 227.227 611.131 227.56C610.764 227.893 610.561 228.363 610.521 228.97H614.361Z" fill="#09100F"/>
</svg>
