<svg width="23" height="22" viewBox="0 0 23 22" fill="none" xmlns="http://www.w3.org/2000/svg">
<path d="M18.3354 11.7858L17.3273 11.613L16.314 11.4602C15.9559 11.4023 15.5945 11.366 15.232 11.3515C14.2667 11.3263 13.3003 11.3339 12.3352 11.3485L9.44183 11.4118C8.25529 11.4449 7.0688 11.474 5.88523 11.5353C5.29267 11.5582 4.70258 11.6016 4.11119 11.6343C3.52198 11.6813 2.93072 11.7173 2.34398 11.778C1.98422 11.7975 1.62343 11.7848 1.26592 11.7401C1.10095 11.7168 0.94434 11.6529 0.810129 11.5542C0.675917 11.4555 0.568298 11.325 0.496921 11.1745C0.236922 10.7234 0.369622 10.1922 0.846758 10.0135C1.15667 9.90483 1.48338 9.85201 1.81173 9.85744C3.29353 9.83614 4.77197 9.71023 6.23603 9.48066C6.63738 9.387 7.05032 9.35281 7.46161 9.37919C8.73218 9.55326 10.0018 9.40521 11.2684 9.50701C11.7384 9.54307 12.2097 9.56064 12.681 9.58203C13.1524 9.59876 13.6241 9.61799 14.0942 9.65805C15.771 9.79262 17.4414 9.99016 19.1048 10.2326C19.764 10.3046 20.3845 10.58 20.8801 11.0206C21.11 11.2343 21.031 11.6691 20.727 11.7302C20.2954 11.8116 19.8575 11.8547 19.4184 11.859C19.0577 11.8454 18.6982 11.8111 18.3415 11.7563L18.3354 11.7858Z" fill="#D5D5D5"/>
<path d="M14.694 13.0233C15.3207 12.6583 15.9608 12.308 16.6283 11.9921C16.9827 11.8252 17.3413 11.6652 17.696 11.491C18.315 11.1716 18.9627 10.9109 19.6304 10.7123C20.3319 10.5052 21.0587 10.3956 21.7901 10.3867L21.2311 12.1939C20.6246 11.8367 20.0232 11.47 19.4308 11.0891C17.3592 9.7547 15.3672 8.29788 13.4321 6.77276C13.1447 6.53102 12.8835 6.25976 12.6529 5.96346C12.5492 5.82932 12.4813 5.67111 12.4554 5.5036C12.4294 5.3361 12.4464 5.16475 12.5046 5.00556C12.6483 4.50638 13.1315 4.2388 13.5871 4.4512C13.8778 4.5962 14.1433 4.78684 14.3737 5.01588C15.4475 6.02687 16.6439 6.89906 17.935 7.612C18.2912 7.81035 18.6803 7.98828 18.9651 8.26808C19.8781 9.1605 21.0097 9.75178 22.0269 10.5003C22.0904 10.5466 22.1539 10.5928 22.2178 10.6393L22.3014 10.7002C22.4511 10.8091 22.561 10.9642 22.614 11.1416C22.6671 11.319 22.6606 11.5089 22.5953 11.6822C22.5301 11.8555 22.4098 12.0026 22.2529 12.101C22.096 12.1993 21.9112 12.2435 21.7268 12.2267C20.9846 12.1591 20.2139 12.3212 19.4515 12.5444C17.9567 12.9848 16.5066 13.7999 15.1172 14.711C14.5763 15.0949 13.9394 15.3209 13.2775 15.3636C12.9597 15.3749 12.7062 15.0133 12.8875 14.7517C13.1488 14.3778 13.4491 14.0327 13.7834 13.7223C14.0741 13.4749 14.3833 13.2501 14.7083 13.0498L14.694 13.0233Z" fill="#D5D5D5"/>
</svg>
