<svg width="40" height="40" viewBox="0 0 40 40" fill="none" xmlns="http://www.w3.org/2000/svg">
<path d="M23.6665 25.286C23.609 24.7679 23.4365 24.3937 23.0914 24.0483C22.4443 23.3719 21.3084 22.9258 19.9712 22.9258C18.6339 22.9258 17.498 23.3575 16.851 24.0483C16.5202 24.4081 16.3333 24.7679 16.2758 25.286C16.1608 26.2935 16.2327 27.157 16.3477 28.553C16.4627 29.8769 16.6784 31.6471 16.9516 33.4317C17.1529 34.7126 17.3111 35.4034 17.4549 35.8927C17.6993 36.6986 18.5764 37.3894 19.9712 37.3894C21.3659 37.3894 22.2574 36.6842 22.4875 35.8927C22.6312 35.4034 22.7894 34.7126 22.9907 33.4317C23.264 31.6327 23.4796 29.8769 23.5946 28.553C23.724 27.157 23.7815 26.2935 23.6665 25.286Z" fill="white"/>
<path d="M23.5063 17.9466C23.5063 19.9038 21.9246 21.4869 19.9691 21.4869C18.0136 21.4869 16.4319 19.9038 16.4319 17.9466C16.4319 15.9893 18.0136 14.4062 19.9691 14.4062C21.9246 14.4062 23.5063 16.0037 23.5063 17.9466Z" fill="white"/>
<path d="M19.9279 4.00002C11.6744 4.02881 4.91634 10.7353 4.80133 18.9961C4.71505 25.6882 8.98553 31.4161 14.9528 33.5173C15.0966 33.5748 15.2404 33.4453 15.226 33.3014C15.1541 32.7833 15.0678 32.2652 15.0103 31.7471C14.9815 31.5601 14.8665 31.4161 14.7083 31.3298C9.99205 29.2718 6.6993 24.5369 6.75681 19.0537C6.8287 11.8579 12.6953 6.00041 19.8703 5.94285C27.218 5.88528 33.214 11.8435 33.214 19.1832C33.214 24.6088 29.9356 29.2718 25.2625 31.3298C25.0899 31.4017 24.9748 31.5601 24.9605 31.7471C24.8886 32.2652 24.8167 32.7833 24.7448 33.3014C24.716 33.4597 24.8742 33.5748 25.018 33.5173C30.9277 31.4449 35.1695 25.8033 35.1695 19.1832C35.1407 10.8073 28.3108 3.98563 19.9279 4.00002Z" fill="white"/>
<path d="M19.5809 9.0375C14.2032 9.23898 9.88956 13.686 9.81767 19.0685C9.77455 22.6089 11.5431 25.7462 14.2607 27.6027C14.3901 27.6891 14.5771 27.5883 14.5771 27.43C14.5339 26.8112 14.5339 26.2643 14.5627 25.6886C14.5771 25.5015 14.5052 25.3288 14.3614 25.1993C12.7078 23.6451 11.7013 21.4287 11.7588 18.9821C11.8738 14.6647 15.3391 11.1531 19.6528 10.9804C24.3403 10.7933 28.1939 14.5639 28.1939 19.198C28.1939 21.5583 27.1874 23.6882 25.5913 25.1993C25.4619 25.3288 25.39 25.5015 25.39 25.6886C25.4187 26.2499 25.4044 26.7968 25.3756 27.4156C25.3612 27.574 25.5482 27.6891 25.692 27.5883C28.3664 25.7606 30.135 22.6664 30.135 19.1836C30.1494 13.4558 25.3612 8.80723 19.5809 9.0375Z" fill="white"/>
</svg>
