<svg width="40" height="40" viewBox="0 0 40 40" fill="none" xmlns="http://www.w3.org/2000/svg">
<path d="M5.29995 16.7505C4.14075 16.7505 3.19995 17.6913 3.19995 18.8505V21.1311C3.19995 23.9315 7.39995 23.9315 7.39995 21.1311V18.8505C7.39995 17.6913 6.45915 16.7505 5.29995 16.7505ZM34.6999 16.7505C33.5408 16.7505 32.5999 17.6913 32.5999 18.8505V21.1311C32.5999 23.9315 36.7999 23.9315 36.7999 21.1311V18.8505C36.7999 17.6913 35.8591 16.7505 34.6999 16.7505ZM12.5513 23.6249C11.3921 23.6249 10.4513 24.5657 10.4513 25.7249V28.0055C10.4513 30.8058 14.6513 30.8058 14.6513 28.0055V25.7417C14.6513 24.5772 13.7157 23.6417 12.5513 23.6417V23.6249ZM12.5513 9.87617C11.3921 9.87617 10.4513 10.817 10.4513 11.9762V19.4795C10.4513 22.2798 14.6513 22.2798 14.6513 19.4795V11.9657C14.6513 10.8012 13.7157 9.86567 12.5513 9.86567V9.87617ZM27.4487 9.87617C26.2842 9.87617 25.3486 10.817 25.3486 11.9762V14.2736C25.3486 17.0739 29.5487 17.0739 29.5487 14.2736V11.9762C29.5487 10.817 28.6078 9.87617 27.4487 9.87617ZM20 3.19922C18.8408 3.19922 17.9 4.14002 17.9 5.29922V7.57982C17.9 10.3802 22.1 10.3802 22.1 7.57982V5.29922C22.1 4.14002 21.1592 3.19922 20 3.19922ZM20 30.3029C18.8408 30.3029 17.9 31.2437 17.9 32.4029V34.7003C17.8895 37.5006 22.0895 37.5164 22.1 34.7171V32.4197C22.1 31.271 21.1592 30.3197 20 30.3197V30.3029ZM27.4487 18.4568C26.2842 18.4568 25.3486 19.4081 25.3486 20.5568V28.0212C25.3486 30.8216 29.5487 30.8216 29.5487 28.0212V20.5568C29.5487 19.3976 28.6078 18.4568 27.4487 18.4568ZM20 11.7798C18.8408 11.7798 17.9 12.7311 17.9 13.8798V26.1029C17.9 28.9032 22.1 28.9032 22.1 26.1029V13.8966C22.1 12.7322 21.1592 11.7966 20 11.7966V11.7798Z" fill="white"/>
</svg>
