<svg width="40" height="40" viewBox="0 0 40 40" fill="none" xmlns="http://www.w3.org/2000/svg">
<path d="M29.9376 18.0927C24.5223 14.8767 15.5898 14.581 10.4202 16.15C9.58981 16.4019 8.71203 15.9334 8.46062 15.1031C8.20905 14.2724 8.67713 13.3951 9.50781 13.1428C15.4424 11.3415 25.3073 11.6893 31.5415 15.39C32.2884 15.8334 32.5331 16.7977 32.0906 17.5431C31.6476 18.2898 30.6824 18.5362 29.9375 18.0927M29.7603 22.856C29.3803 23.4726 28.5742 23.6659 27.9585 23.2874C23.444 20.5123 16.5594 19.7082 11.2181 21.3296C10.5255 21.5387 9.79384 21.1484 9.58349 20.4569C9.48322 20.1245 9.51885 19.7659 9.68258 19.4597C9.84631 19.1535 10.1248 18.9247 10.4569 18.8235C16.5585 16.9718 24.1439 17.8686 29.3293 21.0553C29.945 21.4345 30.1388 22.2409 29.7603 22.856ZM27.7045 27.4306C27.633 27.5481 27.539 27.6504 27.4278 27.7315C27.3167 27.8126 27.1907 27.8711 27.0569 27.9034C26.9232 27.9358 26.7844 27.9415 26.6485 27.9201C26.5125 27.8988 26.3822 27.8508 26.2648 27.779C22.3197 25.3679 17.3541 24.8234 11.5062 26.1592C11.3722 26.1898 11.2335 26.1938 11.098 26.1708C10.9625 26.1478 10.8328 26.0983 10.7164 26.0252C10.6 25.9521 10.4991 25.8568 10.4196 25.7447C10.34 25.6326 10.2833 25.506 10.2527 25.372C10.2219 25.2379 10.2179 25.0991 10.2408 24.9635C10.2637 24.8279 10.3131 24.6981 10.3863 24.5817C10.4594 24.4652 10.5548 24.3643 10.667 24.2847C10.7792 24.2052 10.906 24.1485 11.0401 24.118C17.4396 22.6553 22.9289 23.2848 27.3571 25.9907C27.4745 26.0624 27.5766 26.1565 27.6576 26.2677C27.7386 26.3789 27.7969 26.5049 27.8292 26.6386C27.8615 26.7723 27.8671 26.9111 27.8457 27.047C27.8244 27.1829 27.7763 27.3132 27.7045 27.4306ZM19.9996 3.19922C10.7217 3.19922 3.19995 10.7207 3.19995 19.9989C3.19995 29.2781 10.7217 36.7992 19.9998 36.7992C29.2783 36.7992 36.7999 29.2781 36.7999 19.9989C36.7999 10.7208 29.2783 3.19922 19.9996 3.19922Z" fill="white"/>
</svg>
