<svg width="204" height="115" viewBox="0 0 204 115" fill="none" xmlns="http://www.w3.org/2000/svg">
<rect y="50.0479" width="17.664" height="17.664" rx="5" fill="url(#paint0_linear_1_1294)"/>
<rect x="185.471" y="50.0479" width="17.664" height="17.664" rx="5" fill="url(#paint1_linear_1_1294)"/>
<rect x="42.688" y="17.6641" width="11.04" height="78.7518" rx="5" fill="url(#paint2_linear_1_1294)"/>
<rect x="60.3518" y="32.3838" width="11.04" height="49.3119" rx="5" fill="url(#paint3_linear_1_1294)"/>
<rect x="78.752" y="42.6875" width="10.304" height="28.7039" rx="5" fill="url(#paint4_linear_1_1294)"/>
<rect x="96.4158" y="42.6875" width="10.304" height="28.7039" rx="5" fill="url(#paint5_linear_1_1294)"/>
<rect x="114.08" y="25.0244" width="11.04" height="64.0319" rx="5" fill="url(#paint6_linear_1_1294)"/>
<rect x="131.744" width="11.04" height="114.08" rx="5" fill="url(#paint7_linear_1_1294)"/>
<rect x="149.408" y="25.0244" width="11.04" height="64.0319" rx="5" fill="url(#paint8_linear_1_1294)"/>
<rect x="167.808" y="39.0078" width="10.304" height="36.0639" rx="5" fill="url(#paint9_linear_1_1294)"/>
<rect x="25.0239" y="39.0078" width="10.304" height="36.0639" rx="5" fill="url(#paint10_linear_1_1294)"/>
<defs>
<linearGradient id="paint0_linear_1_1294" x1="8.83198" y1="50.0479" x2="8.83198" y2="67.7118" gradientUnits="userSpaceOnUse">
<stop stop-color="white" stop-opacity="0.26"/>
<stop offset="1" stop-color="#B9B7FF" stop-opacity="0"/>
</linearGradient>
<linearGradient id="paint1_linear_1_1294" x1="194.303" y1="50.0479" x2="194.303" y2="67.7118" gradientUnits="userSpaceOnUse">
<stop stop-color="white" stop-opacity="0.26"/>
<stop offset="1" stop-color="#B9B7FF" stop-opacity="0"/>
</linearGradient>
<linearGradient id="paint2_linear_1_1294" x1="48.208" y1="17.6641" x2="48.208" y2="96.4159" gradientUnits="userSpaceOnUse">
<stop stop-color="white" stop-opacity="0.26"/>
<stop offset="1" stop-color="#B9B7FF" stop-opacity="0"/>
</linearGradient>
<linearGradient id="paint3_linear_1_1294" x1="65.8718" y1="32.3838" x2="65.8718" y2="81.6957" gradientUnits="userSpaceOnUse">
<stop stop-color="white" stop-opacity="0.26"/>
<stop offset="1" stop-color="#B9B7FF" stop-opacity="0"/>
</linearGradient>
<linearGradient id="paint4_linear_1_1294" x1="83.9039" y1="42.6875" x2="83.9039" y2="71.3914" gradientUnits="userSpaceOnUse">
<stop stop-color="white" stop-opacity="0.26"/>
<stop offset="1" stop-color="#B9B7FF" stop-opacity="0"/>
</linearGradient>
<linearGradient id="paint5_linear_1_1294" x1="101.568" y1="42.6875" x2="101.568" y2="71.3914" gradientUnits="userSpaceOnUse">
<stop stop-color="white" stop-opacity="0.26"/>
<stop offset="1" stop-color="#B9B7FF" stop-opacity="0"/>
</linearGradient>
<linearGradient id="paint6_linear_1_1294" x1="119.6" y1="25.0244" x2="119.6" y2="89.0563" gradientUnits="userSpaceOnUse">
<stop stop-color="white" stop-opacity="0.26"/>
<stop offset="1" stop-color="#B9B7FF" stop-opacity="0"/>
</linearGradient>
<linearGradient id="paint7_linear_1_1294" x1="137.264" y1="0" x2="137.264" y2="114.08" gradientUnits="userSpaceOnUse">
<stop stop-color="white" stop-opacity="0.26"/>
<stop offset="1" stop-color="#B9B7FF" stop-opacity="0"/>
</linearGradient>
<linearGradient id="paint8_linear_1_1294" x1="154.928" y1="25.0244" x2="154.928" y2="89.0563" gradientUnits="userSpaceOnUse">
<stop stop-color="white" stop-opacity="0.26"/>
<stop offset="1" stop-color="#B9B7FF" stop-opacity="0"/>
</linearGradient>
<linearGradient id="paint9_linear_1_1294" x1="172.96" y1="39.0078" x2="172.96" y2="75.0717" gradientUnits="userSpaceOnUse">
<stop stop-color="white" stop-opacity="0.26"/>
<stop offset="1" stop-color="#B9B7FF" stop-opacity="0"/>
</linearGradient>
<linearGradient id="paint10_linear_1_1294" x1="30.1759" y1="39.0078" x2="30.1759" y2="75.0717" gradientUnits="userSpaceOnUse">
<stop stop-color="white" stop-opacity="0.26"/>
<stop offset="1" stop-color="#B9B7FF" stop-opacity="0"/>
</linearGradient>
</defs>
</svg>
